<mxfile host="app.diagrams.net" modified="2022-04-17T09:51:02.489Z" agent="5.0 (Windows NT 10.0; Win64; x64) AppleWebKit/537.36 (KHTML, like Gecko) Chrome/100.0.4896.88 Safari/537.36" etag="CKd2R0Xc1d4lShZt3irG" version="17.4.2" type="github" pages="4">
  <diagram id="R2lEEEUBdFMjLlhIrx00" name="Page-1">
    <mxGraphModel dx="1011" dy="581" grid="1" gridSize="10" guides="1" tooltips="1" connect="1" arrows="1" fold="1" page="1" pageScale="1" pageWidth="850" pageHeight="1100" math="0" shadow="0" extFonts="Permanent Marker^https://fonts.googleapis.com/css?family=Permanent+Marker">
      <root>
        <mxCell id="0" />
        <mxCell id="1" parent="0" />
        <mxCell id="C-vyLk0tnHw3VtMMgP7b-1" value="" style="edgeStyle=entityRelationEdgeStyle;endArrow=ERzeroToMany;startArrow=ERmandOne;endFill=1;startFill=0;" parent="1" source="C-vyLk0tnHw3VtMMgP7b-24" target="C-vyLk0tnHw3VtMMgP7b-6" edge="1">
          <mxGeometry width="100" height="100" relative="1" as="geometry">
            <mxPoint x="340" y="720" as="sourcePoint" />
            <mxPoint x="440" y="620" as="targetPoint" />
          </mxGeometry>
        </mxCell>
        <mxCell id="C-vyLk0tnHw3VtMMgP7b-2" value="Transactions" style="shape=table;startSize=30;container=1;collapsible=1;childLayout=tableLayout;fixedRows=1;rowLines=0;fontStyle=1;align=center;resizeLast=1;" parent="1" vertex="1">
          <mxGeometry x="450" y="120" width="250" height="190" as="geometry" />
        </mxCell>
        <mxCell id="C-vyLk0tnHw3VtMMgP7b-3" value="" style="shape=partialRectangle;collapsible=0;dropTarget=0;pointerEvents=0;fillColor=none;points=[[0,0.5],[1,0.5]];portConstraint=eastwest;top=0;left=0;right=0;bottom=1;" parent="C-vyLk0tnHw3VtMMgP7b-2" vertex="1">
          <mxGeometry y="30" width="250" height="30" as="geometry" />
        </mxCell>
        <mxCell id="C-vyLk0tnHw3VtMMgP7b-4" value="PK" style="shape=partialRectangle;overflow=hidden;connectable=0;fillColor=none;top=0;left=0;bottom=0;right=0;fontStyle=1;" parent="C-vyLk0tnHw3VtMMgP7b-3" vertex="1">
          <mxGeometry width="30" height="30" as="geometry">
            <mxRectangle width="30" height="30" as="alternateBounds" />
          </mxGeometry>
        </mxCell>
        <mxCell id="C-vyLk0tnHw3VtMMgP7b-5" value="tran_id" style="shape=partialRectangle;overflow=hidden;connectable=0;fillColor=none;top=0;left=0;bottom=0;right=0;align=left;spacingLeft=6;fontStyle=5;" parent="C-vyLk0tnHw3VtMMgP7b-3" vertex="1">
          <mxGeometry x="30" width="220" height="30" as="geometry">
            <mxRectangle width="220" height="30" as="alternateBounds" />
          </mxGeometry>
        </mxCell>
        <mxCell id="C-vyLk0tnHw3VtMMgP7b-6" value="" style="shape=partialRectangle;collapsible=0;dropTarget=0;pointerEvents=0;fillColor=none;points=[[0,0.5],[1,0.5]];portConstraint=eastwest;top=0;left=0;right=0;bottom=0;" parent="C-vyLk0tnHw3VtMMgP7b-2" vertex="1">
          <mxGeometry y="60" width="250" height="30" as="geometry" />
        </mxCell>
        <mxCell id="C-vyLk0tnHw3VtMMgP7b-7" value="FK" style="shape=partialRectangle;overflow=hidden;connectable=0;fillColor=none;top=0;left=0;bottom=0;right=0;fontStyle=1" parent="C-vyLk0tnHw3VtMMgP7b-6" vertex="1">
          <mxGeometry width="30" height="30" as="geometry">
            <mxRectangle width="30" height="30" as="alternateBounds" />
          </mxGeometry>
        </mxCell>
        <mxCell id="C-vyLk0tnHw3VtMMgP7b-8" value="acc_no" style="shape=partialRectangle;overflow=hidden;connectable=0;fillColor=none;top=0;left=0;bottom=0;right=0;align=left;spacingLeft=6;fontStyle=1" parent="C-vyLk0tnHw3VtMMgP7b-6" vertex="1">
          <mxGeometry x="30" width="220" height="30" as="geometry">
            <mxRectangle width="220" height="30" as="alternateBounds" />
          </mxGeometry>
        </mxCell>
        <mxCell id="C-vyLk0tnHw3VtMMgP7b-9" value="" style="shape=partialRectangle;collapsible=0;dropTarget=0;pointerEvents=0;fillColor=none;points=[[0,0.5],[1,0.5]];portConstraint=eastwest;top=0;left=0;right=0;bottom=0;" parent="C-vyLk0tnHw3VtMMgP7b-2" vertex="1">
          <mxGeometry y="90" width="250" height="30" as="geometry" />
        </mxCell>
        <mxCell id="C-vyLk0tnHw3VtMMgP7b-10" value="" style="shape=partialRectangle;overflow=hidden;connectable=0;fillColor=none;top=0;left=0;bottom=0;right=0;" parent="C-vyLk0tnHw3VtMMgP7b-9" vertex="1">
          <mxGeometry width="30" height="30" as="geometry">
            <mxRectangle width="30" height="30" as="alternateBounds" />
          </mxGeometry>
        </mxCell>
        <mxCell id="C-vyLk0tnHw3VtMMgP7b-11" value="date_time " style="shape=partialRectangle;overflow=hidden;connectable=0;fillColor=none;top=0;left=0;bottom=0;right=0;align=left;spacingLeft=6;fontStyle=1" parent="C-vyLk0tnHw3VtMMgP7b-9" vertex="1">
          <mxGeometry x="30" width="220" height="30" as="geometry">
            <mxRectangle width="220" height="30" as="alternateBounds" />
          </mxGeometry>
        </mxCell>
        <mxCell id="00_CSxPbnxCLIGateTWn-17" value="" style="shape=tableRow;horizontal=0;startSize=0;swimlaneHead=0;swimlaneBody=0;fillColor=none;collapsible=0;dropTarget=0;points=[[0,0.5],[1,0.5]];portConstraint=eastwest;top=0;left=0;right=0;bottom=0;" vertex="1" parent="C-vyLk0tnHw3VtMMgP7b-2">
          <mxGeometry y="120" width="250" height="30" as="geometry" />
        </mxCell>
        <mxCell id="00_CSxPbnxCLIGateTWn-18" value="" style="shape=partialRectangle;connectable=0;fillColor=none;top=0;left=0;bottom=0;right=0;editable=1;overflow=hidden;" vertex="1" parent="00_CSxPbnxCLIGateTWn-17">
          <mxGeometry width="30" height="30" as="geometry">
            <mxRectangle width="30" height="30" as="alternateBounds" />
          </mxGeometry>
        </mxCell>
        <mxCell id="00_CSxPbnxCLIGateTWn-19" value="amount" style="shape=partialRectangle;connectable=0;fillColor=none;top=0;left=0;bottom=0;right=0;align=left;spacingLeft=6;overflow=hidden;fontStyle=1" vertex="1" parent="00_CSxPbnxCLIGateTWn-17">
          <mxGeometry x="30" width="220" height="30" as="geometry">
            <mxRectangle width="220" height="30" as="alternateBounds" />
          </mxGeometry>
        </mxCell>
        <mxCell id="00_CSxPbnxCLIGateTWn-125" value="" style="shape=tableRow;horizontal=0;startSize=0;swimlaneHead=0;swimlaneBody=0;fillColor=none;collapsible=0;dropTarget=0;points=[[0,0.5],[1,0.5]];portConstraint=eastwest;top=0;left=0;right=0;bottom=0;fontSize=10;strokeWidth=1;" vertex="1" parent="C-vyLk0tnHw3VtMMgP7b-2">
          <mxGeometry y="150" width="250" height="30" as="geometry" />
        </mxCell>
        <mxCell id="00_CSxPbnxCLIGateTWn-126" value="" style="shape=partialRectangle;connectable=0;fillColor=none;top=0;left=0;bottom=0;right=0;editable=1;overflow=hidden;fontSize=10;strokeWidth=1;" vertex="1" parent="00_CSxPbnxCLIGateTWn-125">
          <mxGeometry width="30" height="30" as="geometry">
            <mxRectangle width="30" height="30" as="alternateBounds" />
          </mxGeometry>
        </mxCell>
        <mxCell id="00_CSxPbnxCLIGateTWn-127" value="type" style="shape=partialRectangle;connectable=0;fillColor=none;top=0;left=0;bottom=0;right=0;align=left;spacingLeft=6;overflow=hidden;fontSize=10;strokeWidth=1;fontStyle=1" vertex="1" parent="00_CSxPbnxCLIGateTWn-125">
          <mxGeometry x="30" width="220" height="30" as="geometry">
            <mxRectangle width="220" height="30" as="alternateBounds" />
          </mxGeometry>
        </mxCell>
        <mxCell id="C-vyLk0tnHw3VtMMgP7b-13" value="Payments" style="shape=table;startSize=30;container=1;collapsible=1;childLayout=tableLayout;fixedRows=1;rowLines=0;fontStyle=1;align=center;resizeLast=1;" parent="1" vertex="1">
          <mxGeometry x="412" y="450" width="250" height="184" as="geometry" />
        </mxCell>
        <mxCell id="C-vyLk0tnHw3VtMMgP7b-14" value="" style="shape=partialRectangle;collapsible=0;dropTarget=0;pointerEvents=0;fillColor=none;points=[[0,0.5],[1,0.5]];portConstraint=eastwest;top=0;left=0;right=0;bottom=1;" parent="C-vyLk0tnHw3VtMMgP7b-13" vertex="1">
          <mxGeometry y="30" width="250" height="30" as="geometry" />
        </mxCell>
        <mxCell id="C-vyLk0tnHw3VtMMgP7b-15" value="PK" style="shape=partialRectangle;overflow=hidden;connectable=0;fillColor=none;top=0;left=0;bottom=0;right=0;fontStyle=1;" parent="C-vyLk0tnHw3VtMMgP7b-14" vertex="1">
          <mxGeometry width="30" height="30" as="geometry">
            <mxRectangle width="30" height="30" as="alternateBounds" />
          </mxGeometry>
        </mxCell>
        <mxCell id="C-vyLk0tnHw3VtMMgP7b-16" value="reference_no" style="shape=partialRectangle;overflow=hidden;connectable=0;fillColor=none;top=0;left=0;bottom=0;right=0;align=left;spacingLeft=6;fontStyle=5;" parent="C-vyLk0tnHw3VtMMgP7b-14" vertex="1">
          <mxGeometry x="30" width="220" height="30" as="geometry">
            <mxRectangle width="220" height="30" as="alternateBounds" />
          </mxGeometry>
        </mxCell>
        <mxCell id="C-vyLk0tnHw3VtMMgP7b-17" value="" style="shape=partialRectangle;collapsible=0;dropTarget=0;pointerEvents=0;fillColor=none;points=[[0,0.5],[1,0.5]];portConstraint=eastwest;top=0;left=0;right=0;bottom=0;" parent="C-vyLk0tnHw3VtMMgP7b-13" vertex="1">
          <mxGeometry y="60" width="250" height="30" as="geometry" />
        </mxCell>
        <mxCell id="C-vyLk0tnHw3VtMMgP7b-18" value="FK" style="shape=partialRectangle;overflow=hidden;connectable=0;fillColor=none;top=0;left=0;bottom=0;right=0;fontStyle=1" parent="C-vyLk0tnHw3VtMMgP7b-17" vertex="1">
          <mxGeometry width="30" height="30" as="geometry">
            <mxRectangle width="30" height="30" as="alternateBounds" />
          </mxGeometry>
        </mxCell>
        <mxCell id="C-vyLk0tnHw3VtMMgP7b-19" value="loan_id  " style="shape=partialRectangle;overflow=hidden;connectable=0;fillColor=none;top=0;left=0;bottom=0;right=0;align=left;spacingLeft=6;fontStyle=1" parent="C-vyLk0tnHw3VtMMgP7b-17" vertex="1">
          <mxGeometry x="30" width="220" height="30" as="geometry">
            <mxRectangle width="220" height="30" as="alternateBounds" />
          </mxGeometry>
        </mxCell>
        <mxCell id="C-vyLk0tnHw3VtMMgP7b-20" value="" style="shape=partialRectangle;collapsible=0;dropTarget=0;pointerEvents=0;fillColor=none;points=[[0,0.5],[1,0.5]];portConstraint=eastwest;top=0;left=0;right=0;bottom=0;" parent="C-vyLk0tnHw3VtMMgP7b-13" vertex="1">
          <mxGeometry y="90" width="250" height="30" as="geometry" />
        </mxCell>
        <mxCell id="C-vyLk0tnHw3VtMMgP7b-21" value="" style="shape=partialRectangle;overflow=hidden;connectable=0;fillColor=none;top=0;left=0;bottom=0;right=0;" parent="C-vyLk0tnHw3VtMMgP7b-20" vertex="1">
          <mxGeometry width="30" height="30" as="geometry">
            <mxRectangle width="30" height="30" as="alternateBounds" />
          </mxGeometry>
        </mxCell>
        <mxCell id="C-vyLk0tnHw3VtMMgP7b-22" value="date_time" style="shape=partialRectangle;overflow=hidden;connectable=0;fillColor=none;top=0;left=0;bottom=0;right=0;align=left;spacingLeft=6;fontStyle=1" parent="C-vyLk0tnHw3VtMMgP7b-20" vertex="1">
          <mxGeometry x="30" width="220" height="30" as="geometry">
            <mxRectangle width="220" height="30" as="alternateBounds" />
          </mxGeometry>
        </mxCell>
        <mxCell id="00_CSxPbnxCLIGateTWn-11" value="" style="shape=tableRow;horizontal=0;startSize=0;swimlaneHead=0;swimlaneBody=0;fillColor=none;collapsible=0;dropTarget=0;points=[[0,0.5],[1,0.5]];portConstraint=eastwest;top=0;left=0;right=0;bottom=0;" vertex="1" parent="C-vyLk0tnHw3VtMMgP7b-13">
          <mxGeometry y="120" width="250" height="30" as="geometry" />
        </mxCell>
        <mxCell id="00_CSxPbnxCLIGateTWn-12" value="" style="shape=partialRectangle;connectable=0;fillColor=none;top=0;left=0;bottom=0;right=0;editable=1;overflow=hidden;" vertex="1" parent="00_CSxPbnxCLIGateTWn-11">
          <mxGeometry width="30" height="30" as="geometry">
            <mxRectangle width="30" height="30" as="alternateBounds" />
          </mxGeometry>
        </mxCell>
        <mxCell id="00_CSxPbnxCLIGateTWn-13" value="amount" style="shape=partialRectangle;connectable=0;fillColor=none;top=0;left=0;bottom=0;right=0;align=left;spacingLeft=6;overflow=hidden;fontStyle=1" vertex="1" parent="00_CSxPbnxCLIGateTWn-11">
          <mxGeometry x="30" width="220" height="30" as="geometry">
            <mxRectangle width="220" height="30" as="alternateBounds" />
          </mxGeometry>
        </mxCell>
        <mxCell id="00_CSxPbnxCLIGateTWn-128" value="" style="shape=tableRow;horizontal=0;startSize=0;swimlaneHead=0;swimlaneBody=0;fillColor=none;collapsible=0;dropTarget=0;points=[[0,0.5],[1,0.5]];portConstraint=eastwest;top=0;left=0;right=0;bottom=0;fontSize=10;strokeWidth=1;" vertex="1" parent="C-vyLk0tnHw3VtMMgP7b-13">
          <mxGeometry y="150" width="250" height="24" as="geometry" />
        </mxCell>
        <mxCell id="00_CSxPbnxCLIGateTWn-129" value="" style="shape=partialRectangle;connectable=0;fillColor=none;top=0;left=0;bottom=0;right=0;editable=1;overflow=hidden;fontSize=10;strokeWidth=1;" vertex="1" parent="00_CSxPbnxCLIGateTWn-128">
          <mxGeometry width="30" height="24" as="geometry">
            <mxRectangle width="30" height="24" as="alternateBounds" />
          </mxGeometry>
        </mxCell>
        <mxCell id="00_CSxPbnxCLIGateTWn-130" value="type" style="shape=partialRectangle;connectable=0;fillColor=none;top=0;left=0;bottom=0;right=0;align=left;spacingLeft=6;overflow=hidden;fontSize=10;strokeWidth=1;fontStyle=1" vertex="1" parent="00_CSxPbnxCLIGateTWn-128">
          <mxGeometry x="30" width="220" height="24" as="geometry">
            <mxRectangle width="220" height="24" as="alternateBounds" />
          </mxGeometry>
        </mxCell>
        <mxCell id="C-vyLk0tnHw3VtMMgP7b-23" value="Accounts" style="shape=table;startSize=30;container=1;collapsible=1;childLayout=tableLayout;fixedRows=1;rowLines=0;fontStyle=1;align=center;resizeLast=1;" parent="1" vertex="1">
          <mxGeometry x="127.5" y="120" width="220" height="120" as="geometry" />
        </mxCell>
        <mxCell id="C-vyLk0tnHw3VtMMgP7b-24" value="" style="shape=partialRectangle;collapsible=0;dropTarget=0;pointerEvents=0;fillColor=none;points=[[0,0.5],[1,0.5]];portConstraint=eastwest;top=0;left=0;right=0;bottom=1;" parent="C-vyLk0tnHw3VtMMgP7b-23" vertex="1">
          <mxGeometry y="30" width="220" height="30" as="geometry" />
        </mxCell>
        <mxCell id="C-vyLk0tnHw3VtMMgP7b-25" value="PK" style="shape=partialRectangle;overflow=hidden;connectable=0;fillColor=none;top=0;left=0;bottom=0;right=0;fontStyle=1;" parent="C-vyLk0tnHw3VtMMgP7b-24" vertex="1">
          <mxGeometry width="30" height="30" as="geometry">
            <mxRectangle width="30" height="30" as="alternateBounds" />
          </mxGeometry>
        </mxCell>
        <mxCell id="C-vyLk0tnHw3VtMMgP7b-26" value="acc_no" style="shape=partialRectangle;overflow=hidden;connectable=0;fillColor=none;top=0;left=0;bottom=0;right=0;align=left;spacingLeft=6;fontStyle=5;" parent="C-vyLk0tnHw3VtMMgP7b-24" vertex="1">
          <mxGeometry x="30" width="190" height="30" as="geometry">
            <mxRectangle width="190" height="30" as="alternateBounds" />
          </mxGeometry>
        </mxCell>
        <mxCell id="C-vyLk0tnHw3VtMMgP7b-27" value="" style="shape=partialRectangle;collapsible=0;dropTarget=0;pointerEvents=0;fillColor=none;points=[[0,0.5],[1,0.5]];portConstraint=eastwest;top=0;left=0;right=0;bottom=0;" parent="C-vyLk0tnHw3VtMMgP7b-23" vertex="1">
          <mxGeometry y="60" width="220" height="30" as="geometry" />
        </mxCell>
        <mxCell id="C-vyLk0tnHw3VtMMgP7b-28" value="" style="shape=partialRectangle;overflow=hidden;connectable=0;fillColor=none;top=0;left=0;bottom=0;right=0;" parent="C-vyLk0tnHw3VtMMgP7b-27" vertex="1">
          <mxGeometry width="30" height="30" as="geometry">
            <mxRectangle width="30" height="30" as="alternateBounds" />
          </mxGeometry>
        </mxCell>
        <mxCell id="C-vyLk0tnHw3VtMMgP7b-29" value="balance" style="shape=partialRectangle;overflow=hidden;connectable=0;fillColor=none;top=0;left=0;bottom=0;right=0;align=left;spacingLeft=6;fontStyle=1" parent="C-vyLk0tnHw3VtMMgP7b-27" vertex="1">
          <mxGeometry x="30" width="190" height="30" as="geometry">
            <mxRectangle width="190" height="30" as="alternateBounds" />
          </mxGeometry>
        </mxCell>
        <mxCell id="00_CSxPbnxCLIGateTWn-20" value="" style="shape=tableRow;horizontal=0;startSize=0;swimlaneHead=0;swimlaneBody=0;fillColor=none;collapsible=0;dropTarget=0;points=[[0,0.5],[1,0.5]];portConstraint=eastwest;top=0;left=0;right=0;bottom=0;" vertex="1" parent="C-vyLk0tnHw3VtMMgP7b-23">
          <mxGeometry y="90" width="220" height="30" as="geometry" />
        </mxCell>
        <mxCell id="00_CSxPbnxCLIGateTWn-21" value="" style="shape=partialRectangle;connectable=0;fillColor=none;top=0;left=0;bottom=0;right=0;editable=1;overflow=hidden;" vertex="1" parent="00_CSxPbnxCLIGateTWn-20">
          <mxGeometry width="30" height="30" as="geometry">
            <mxRectangle width="30" height="30" as="alternateBounds" />
          </mxGeometry>
        </mxCell>
        <mxCell id="00_CSxPbnxCLIGateTWn-22" value="acc_type" style="shape=partialRectangle;connectable=0;fillColor=none;top=0;left=0;bottom=0;right=0;align=left;spacingLeft=6;overflow=hidden;fontStyle=1" vertex="1" parent="00_CSxPbnxCLIGateTWn-20">
          <mxGeometry x="30" width="190" height="30" as="geometry">
            <mxRectangle width="190" height="30" as="alternateBounds" />
          </mxGeometry>
        </mxCell>
        <mxCell id="00_CSxPbnxCLIGateTWn-24" value="" style="endArrow=none;html=1;rounded=0;exitX=0.54;exitY=0.007;exitDx=0;exitDy=0;exitPerimeter=0;entryX=0.509;entryY=0.97;entryDx=0;entryDy=0;entryPerimeter=0;" edge="1" parent="1" source="00_CSxPbnxCLIGateTWn-25" target="00_CSxPbnxCLIGateTWn-20">
          <mxGeometry width="50" height="50" relative="1" as="geometry">
            <mxPoint x="240" y="290" as="sourcePoint" />
            <mxPoint x="240" y="250" as="targetPoint" />
          </mxGeometry>
        </mxCell>
        <mxCell id="00_CSxPbnxCLIGateTWn-25" value="d" style="ellipse;shape=umlEntity;whiteSpace=wrap;html=1;" vertex="1" parent="1">
          <mxGeometry x="207" y="270" width="60" height="20" as="geometry" />
        </mxCell>
        <mxCell id="00_CSxPbnxCLIGateTWn-26" value="" style="line;strokeWidth=1;rotatable=0;dashed=0;labelPosition=right;align=left;verticalAlign=middle;spacingTop=0;spacingLeft=6;points=[];portConstraint=eastwest;" vertex="1" parent="1">
          <mxGeometry x="217.62" y="290" width="39.75" height="10" as="geometry" />
        </mxCell>
        <mxCell id="00_CSxPbnxCLIGateTWn-27" value="&lt;font style=&quot;font-size: 10px&quot;&gt;acc_type&lt;/font&gt;" style="text;html=1;align=center;verticalAlign=middle;resizable=0;points=[];autosize=1;strokeColor=none;fillColor=none;" vertex="1" parent="1">
          <mxGeometry x="240" y="250" width="60" height="20" as="geometry" />
        </mxCell>
        <mxCell id="00_CSxPbnxCLIGateTWn-69" value="" style="edgeStyle=orthogonalEdgeStyle;rounded=0;orthogonalLoop=1;jettySize=auto;html=1;fontSize=6;endArrow=none;endFill=0;" edge="1" parent="1" target="00_CSxPbnxCLIGateTWn-67">
          <mxGeometry relative="1" as="geometry">
            <mxPoint x="173" y="324" as="sourcePoint" />
            <mxPoint x="158" y="304" as="targetPoint" />
            <Array as="points">
              <mxPoint x="158" y="324" />
            </Array>
          </mxGeometry>
        </mxCell>
        <mxCell id="00_CSxPbnxCLIGateTWn-63" value="" style="line;strokeWidth=1;direction=south;html=1;fontSize=10;" vertex="1" parent="1">
          <mxGeometry x="232.49" y="295" width="10" height="25" as="geometry" />
        </mxCell>
        <mxCell id="00_CSxPbnxCLIGateTWn-67" value="" style="line;strokeWidth=1;html=1;perimeter=backbonePerimeter;points=[];outlineConnect=0;fontSize=6;textOpacity=90;" vertex="1" parent="1">
          <mxGeometry x="158" y="300" width="170" height="10" as="geometry" />
        </mxCell>
        <mxCell id="00_CSxPbnxCLIGateTWn-70" value="" style="line;strokeWidth=1;direction=south;html=1;fontSize=10;" vertex="1" parent="1">
          <mxGeometry x="322.49" y="305" width="10" height="15" as="geometry" />
        </mxCell>
        <mxCell id="00_CSxPbnxCLIGateTWn-71" value="Loan" style="shape=table;startSize=30;container=1;collapsible=1;childLayout=tableLayout;fixedRows=1;rowLines=0;fontStyle=1;align=center;resizeLast=1;" vertex="1" parent="1">
          <mxGeometry x="90.5" y="452" width="220" height="90" as="geometry" />
        </mxCell>
        <mxCell id="00_CSxPbnxCLIGateTWn-72" value="" style="shape=partialRectangle;collapsible=0;dropTarget=0;pointerEvents=0;fillColor=none;points=[[0,0.5],[1,0.5]];portConstraint=eastwest;top=0;left=0;right=0;bottom=1;" vertex="1" parent="00_CSxPbnxCLIGateTWn-71">
          <mxGeometry y="30" width="220" height="30" as="geometry" />
        </mxCell>
        <mxCell id="00_CSxPbnxCLIGateTWn-73" value="PK" style="shape=partialRectangle;overflow=hidden;connectable=0;fillColor=none;top=0;left=0;bottom=0;right=0;fontStyle=1;" vertex="1" parent="00_CSxPbnxCLIGateTWn-72">
          <mxGeometry width="30" height="30" as="geometry">
            <mxRectangle width="30" height="30" as="alternateBounds" />
          </mxGeometry>
        </mxCell>
        <mxCell id="00_CSxPbnxCLIGateTWn-74" value="loan_id" style="shape=partialRectangle;overflow=hidden;connectable=0;fillColor=none;top=0;left=0;bottom=0;right=0;align=left;spacingLeft=6;fontStyle=5;" vertex="1" parent="00_CSxPbnxCLIGateTWn-72">
          <mxGeometry x="30" width="190" height="30" as="geometry">
            <mxRectangle width="190" height="30" as="alternateBounds" />
          </mxGeometry>
        </mxCell>
        <mxCell id="00_CSxPbnxCLIGateTWn-78" value="" style="shape=tableRow;horizontal=0;startSize=0;swimlaneHead=0;swimlaneBody=0;fillColor=none;collapsible=0;dropTarget=0;points=[[0,0.5],[1,0.5]];portConstraint=eastwest;top=0;left=0;right=0;bottom=0;" vertex="1" parent="00_CSxPbnxCLIGateTWn-71">
          <mxGeometry y="60" width="220" height="30" as="geometry" />
        </mxCell>
        <mxCell id="00_CSxPbnxCLIGateTWn-79" value="" style="shape=partialRectangle;connectable=0;fillColor=none;top=0;left=0;bottom=0;right=0;editable=1;overflow=hidden;" vertex="1" parent="00_CSxPbnxCLIGateTWn-78">
          <mxGeometry width="30" height="30" as="geometry">
            <mxRectangle width="30" height="30" as="alternateBounds" />
          </mxGeometry>
        </mxCell>
        <mxCell id="00_CSxPbnxCLIGateTWn-80" value="loan_type" style="shape=partialRectangle;connectable=0;fillColor=none;top=0;left=0;bottom=0;right=0;align=left;spacingLeft=6;overflow=hidden;fontStyle=1" vertex="1" parent="00_CSxPbnxCLIGateTWn-78">
          <mxGeometry x="30" width="190" height="30" as="geometry">
            <mxRectangle width="190" height="30" as="alternateBounds" />
          </mxGeometry>
        </mxCell>
        <mxCell id="00_CSxPbnxCLIGateTWn-81" value="" style="endArrow=none;html=1;rounded=0;exitX=0.54;exitY=0.007;exitDx=0;exitDy=0;exitPerimeter=0;entryX=0.509;entryY=0.97;entryDx=0;entryDy=0;entryPerimeter=0;" edge="1" parent="1" source="00_CSxPbnxCLIGateTWn-82" target="00_CSxPbnxCLIGateTWn-78">
          <mxGeometry width="50" height="50" relative="1" as="geometry">
            <mxPoint x="203" y="622" as="sourcePoint" />
            <mxPoint x="203" y="582" as="targetPoint" />
          </mxGeometry>
        </mxCell>
        <mxCell id="00_CSxPbnxCLIGateTWn-82" value="d" style="ellipse;shape=umlEntity;whiteSpace=wrap;html=1;" vertex="1" parent="1">
          <mxGeometry x="169.49" y="584" width="60" height="20" as="geometry" />
        </mxCell>
        <mxCell id="00_CSxPbnxCLIGateTWn-83" value="" style="line;strokeWidth=1;rotatable=0;dashed=0;labelPosition=right;align=left;verticalAlign=middle;spacingTop=0;spacingLeft=6;points=[];portConstraint=eastwest;" vertex="1" parent="1">
          <mxGeometry x="180.63" y="604" width="39.75" height="10" as="geometry" />
        </mxCell>
        <mxCell id="00_CSxPbnxCLIGateTWn-84" value="&lt;font style=&quot;font-size: 10px&quot;&gt;loan_type&lt;/font&gt;" style="text;html=1;align=center;verticalAlign=middle;resizable=0;points=[];autosize=1;strokeColor=none;fillColor=none;" vertex="1" parent="1">
          <mxGeometry x="202" y="554" width="60" height="20" as="geometry" />
        </mxCell>
        <mxCell id="00_CSxPbnxCLIGateTWn-85" value="" style="edgeStyle=orthogonalEdgeStyle;rounded=0;orthogonalLoop=1;jettySize=auto;html=1;fontSize=6;endArrow=none;endFill=0;" edge="1" parent="1">
          <mxGeometry relative="1" as="geometry">
            <mxPoint x="95" y="656" as="sourcePoint" />
            <mxPoint x="80.00917431192659" y="622.3165137614678" as="targetPoint" />
            <Array as="points">
              <mxPoint x="80" y="656" />
            </Array>
          </mxGeometry>
        </mxCell>
        <mxCell id="00_CSxPbnxCLIGateTWn-93" style="edgeStyle=orthogonalEdgeStyle;rounded=0;orthogonalLoop=1;jettySize=auto;html=1;exitX=0;exitY=0.5;exitDx=0;exitDy=0;exitPerimeter=0;entryX=0.499;entryY=0.546;entryDx=0;entryDy=0;entryPerimeter=0;fontSize=6;endArrow=none;endFill=0;" edge="1" parent="1">
          <mxGeometry relative="1" as="geometry">
            <mxPoint x="167.49" y="627" as="sourcePoint" />
            <mxPoint x="191.46525000000003" y="609.4599999999999" as="targetPoint" />
          </mxGeometry>
        </mxCell>
        <mxCell id="00_CSxPbnxCLIGateTWn-89" value="" style="line;strokeWidth=1;direction=south;html=1;fontSize=10;" vertex="1" parent="1">
          <mxGeometry x="162.49" y="627" width="10" height="25" as="geometry" />
        </mxCell>
        <mxCell id="00_CSxPbnxCLIGateTWn-90" value="" style="line;strokeWidth=1;html=1;perimeter=backbonePerimeter;points=[];outlineConnect=0;fontSize=6;textOpacity=90;" vertex="1" parent="1">
          <mxGeometry x="80" y="617" width="230" height="10" as="geometry" />
        </mxCell>
        <mxCell id="00_CSxPbnxCLIGateTWn-120" value="" style="edgeStyle=orthogonalEdgeStyle;rounded=0;orthogonalLoop=1;jettySize=auto;html=1;fontSize=6;endArrow=none;endFill=0;exitX=0.467;exitY=0.032;exitDx=0;exitDy=0;exitPerimeter=0;" edge="1" parent="1">
          <mxGeometry relative="1" as="geometry">
            <mxPoint x="242.61900000000003" y="650.6400000000001" as="sourcePoint" />
            <mxPoint x="242" y="622" as="targetPoint" />
            <Array as="points">
              <mxPoint x="243" y="652" />
              <mxPoint x="242" y="652" />
            </Array>
          </mxGeometry>
        </mxCell>
        <mxCell id="00_CSxPbnxCLIGateTWn-122" value="" style="edgeStyle=entityRelationEdgeStyle;endArrow=ERoneToMany;startArrow=ERmandOne;endFill=0;startFill=0;" edge="1" parent="1">
          <mxGeometry width="100" height="100" relative="1" as="geometry">
            <mxPoint x="310.5" y="494" as="sourcePoint" />
            <mxPoint x="413" y="524" as="targetPoint" />
          </mxGeometry>
        </mxCell>
        <mxCell id="00_CSxPbnxCLIGateTWn-123" value="&lt;font style=&quot;font-size: 10px&quot;&gt;make/made by&lt;/font&gt;" style="text;html=1;align=center;verticalAlign=middle;resizable=0;points=[];autosize=1;strokeColor=none;fillColor=none;fontSize=6;" vertex="1" parent="1">
          <mxGeometry x="360" y="150" width="80" height="10" as="geometry" />
        </mxCell>
        <mxCell id="00_CSxPbnxCLIGateTWn-124" value="&lt;font style=&quot;font-size: 10px&quot;&gt;has/has&lt;/font&gt;" style="text;html=1;align=center;verticalAlign=middle;resizable=0;points=[];autosize=1;strokeColor=none;fillColor=none;fontSize=6;" vertex="1" parent="1">
          <mxGeometry x="337" y="484" width="50" height="10" as="geometry" />
        </mxCell>
        <mxCell id="-qeI5dG_QsON_zAscdc0-1" value="Saving" style="shape=table;startSize=30;container=1;collapsible=1;childLayout=tableLayout;fixedRows=1;rowLines=0;fontStyle=1;align=center;resizeLast=1;" vertex="1" parent="1">
          <mxGeometry x="101.12" y="320" width="90" height="60" as="geometry" />
        </mxCell>
        <mxCell id="-qeI5dG_QsON_zAscdc0-2" value="" style="shape=partialRectangle;collapsible=0;dropTarget=0;pointerEvents=0;fillColor=none;points=[[0,0.5],[1,0.5]];portConstraint=eastwest;top=0;left=0;right=0;bottom=1;" vertex="1" parent="-qeI5dG_QsON_zAscdc0-1">
          <mxGeometry y="30" width="90" height="30" as="geometry" />
        </mxCell>
        <mxCell id="-qeI5dG_QsON_zAscdc0-3" value="PK" style="shape=partialRectangle;overflow=hidden;connectable=0;fillColor=none;top=0;left=0;bottom=0;right=0;fontStyle=1;" vertex="1" parent="-qeI5dG_QsON_zAscdc0-2">
          <mxGeometry width="30" height="30" as="geometry">
            <mxRectangle width="30" height="30" as="alternateBounds" />
          </mxGeometry>
        </mxCell>
        <mxCell id="-qeI5dG_QsON_zAscdc0-4" value="acc_no" style="shape=partialRectangle;overflow=hidden;connectable=0;fillColor=none;top=0;left=0;bottom=0;right=0;align=left;spacingLeft=6;fontStyle=5;" vertex="1" parent="-qeI5dG_QsON_zAscdc0-2">
          <mxGeometry x="30" width="60" height="30" as="geometry">
            <mxRectangle width="60" height="30" as="alternateBounds" />
          </mxGeometry>
        </mxCell>
        <mxCell id="-qeI5dG_QsON_zAscdc0-11" value="Checking" style="shape=table;startSize=30;container=1;collapsible=1;childLayout=tableLayout;fixedRows=1;rowLines=0;fontStyle=1;align=center;resizeLast=1;" vertex="1" parent="1">
          <mxGeometry x="200" y="320" width="90" height="60" as="geometry" />
        </mxCell>
        <mxCell id="-qeI5dG_QsON_zAscdc0-12" value="" style="shape=partialRectangle;collapsible=0;dropTarget=0;pointerEvents=0;fillColor=none;points=[[0,0.5],[1,0.5]];portConstraint=eastwest;top=0;left=0;right=0;bottom=1;" vertex="1" parent="-qeI5dG_QsON_zAscdc0-11">
          <mxGeometry y="30" width="90" height="30" as="geometry" />
        </mxCell>
        <mxCell id="-qeI5dG_QsON_zAscdc0-13" value="PK" style="shape=partialRectangle;overflow=hidden;connectable=0;fillColor=none;top=0;left=0;bottom=0;right=0;fontStyle=1;" vertex="1" parent="-qeI5dG_QsON_zAscdc0-12">
          <mxGeometry width="30" height="30" as="geometry">
            <mxRectangle width="30" height="30" as="alternateBounds" />
          </mxGeometry>
        </mxCell>
        <mxCell id="-qeI5dG_QsON_zAscdc0-14" value="acc_no" style="shape=partialRectangle;overflow=hidden;connectable=0;fillColor=none;top=0;left=0;bottom=0;right=0;align=left;spacingLeft=6;fontStyle=5;" vertex="1" parent="-qeI5dG_QsON_zAscdc0-12">
          <mxGeometry x="30" width="60" height="30" as="geometry">
            <mxRectangle width="60" height="30" as="alternateBounds" />
          </mxGeometry>
        </mxCell>
        <mxCell id="-qeI5dG_QsON_zAscdc0-15" value="Trust" style="shape=table;startSize=30;container=1;collapsible=1;childLayout=tableLayout;fixedRows=1;rowLines=0;fontStyle=1;align=center;resizeLast=1;" vertex="1" parent="1">
          <mxGeometry x="309.5" y="320" width="90" height="60" as="geometry" />
        </mxCell>
        <mxCell id="-qeI5dG_QsON_zAscdc0-16" value="" style="shape=partialRectangle;collapsible=0;dropTarget=0;pointerEvents=0;fillColor=none;points=[[0,0.5],[1,0.5]];portConstraint=eastwest;top=0;left=0;right=0;bottom=1;" vertex="1" parent="-qeI5dG_QsON_zAscdc0-15">
          <mxGeometry y="30" width="90" height="30" as="geometry" />
        </mxCell>
        <mxCell id="-qeI5dG_QsON_zAscdc0-17" value="PK" style="shape=partialRectangle;overflow=hidden;connectable=0;fillColor=none;top=0;left=0;bottom=0;right=0;fontStyle=1;" vertex="1" parent="-qeI5dG_QsON_zAscdc0-16">
          <mxGeometry width="30" height="30" as="geometry">
            <mxRectangle width="30" height="30" as="alternateBounds" />
          </mxGeometry>
        </mxCell>
        <mxCell id="-qeI5dG_QsON_zAscdc0-18" value="acc_no" style="shape=partialRectangle;overflow=hidden;connectable=0;fillColor=none;top=0;left=0;bottom=0;right=0;align=left;spacingLeft=6;fontStyle=5;" vertex="1" parent="-qeI5dG_QsON_zAscdc0-16">
          <mxGeometry x="30" width="60" height="30" as="geometry">
            <mxRectangle width="60" height="30" as="alternateBounds" />
          </mxGeometry>
        </mxCell>
        <mxCell id="-qeI5dG_QsON_zAscdc0-19" value="Car" style="shape=table;startSize=30;container=1;collapsible=1;childLayout=tableLayout;fixedRows=1;rowLines=0;fontStyle=1;align=center;resizeLast=1;" vertex="1" parent="1">
          <mxGeometry x="21.12" y="652" width="80" height="60" as="geometry" />
        </mxCell>
        <mxCell id="-qeI5dG_QsON_zAscdc0-20" value="" style="shape=partialRectangle;collapsible=0;dropTarget=0;pointerEvents=0;fillColor=none;points=[[0,0.5],[1,0.5]];portConstraint=eastwest;top=0;left=0;right=0;bottom=1;" vertex="1" parent="-qeI5dG_QsON_zAscdc0-19">
          <mxGeometry y="30" width="80" height="30" as="geometry" />
        </mxCell>
        <mxCell id="-qeI5dG_QsON_zAscdc0-21" value="PK" style="shape=partialRectangle;overflow=hidden;connectable=0;fillColor=none;top=0;left=0;bottom=0;right=0;fontStyle=1;" vertex="1" parent="-qeI5dG_QsON_zAscdc0-20">
          <mxGeometry width="20" height="30" as="geometry">
            <mxRectangle width="20" height="30" as="alternateBounds" />
          </mxGeometry>
        </mxCell>
        <mxCell id="-qeI5dG_QsON_zAscdc0-22" value="loan_id" style="shape=partialRectangle;overflow=hidden;connectable=0;fillColor=none;top=0;left=0;bottom=0;right=0;align=left;spacingLeft=6;fontStyle=5;" vertex="1" parent="-qeI5dG_QsON_zAscdc0-20">
          <mxGeometry x="20" width="60" height="30" as="geometry">
            <mxRectangle width="60" height="30" as="alternateBounds" />
          </mxGeometry>
        </mxCell>
        <mxCell id="-qeI5dG_QsON_zAscdc0-23" value="Home" style="shape=table;startSize=30;container=1;collapsible=1;childLayout=tableLayout;fixedRows=1;rowLines=0;fontStyle=1;align=center;resizeLast=1;" vertex="1" parent="1">
          <mxGeometry x="120" y="652" width="80" height="60" as="geometry" />
        </mxCell>
        <mxCell id="-qeI5dG_QsON_zAscdc0-24" value="" style="shape=partialRectangle;collapsible=0;dropTarget=0;pointerEvents=0;fillColor=none;points=[[0,0.5],[1,0.5]];portConstraint=eastwest;top=0;left=0;right=0;bottom=1;" vertex="1" parent="-qeI5dG_QsON_zAscdc0-23">
          <mxGeometry y="30" width="80" height="30" as="geometry" />
        </mxCell>
        <mxCell id="-qeI5dG_QsON_zAscdc0-25" value="PK" style="shape=partialRectangle;overflow=hidden;connectable=0;fillColor=none;top=0;left=0;bottom=0;right=0;fontStyle=1;" vertex="1" parent="-qeI5dG_QsON_zAscdc0-24">
          <mxGeometry width="20" height="30" as="geometry">
            <mxRectangle width="20" height="30" as="alternateBounds" />
          </mxGeometry>
        </mxCell>
        <mxCell id="-qeI5dG_QsON_zAscdc0-26" value="loan_id" style="shape=partialRectangle;overflow=hidden;connectable=0;fillColor=none;top=0;left=0;bottom=0;right=0;align=left;spacingLeft=6;fontStyle=5;" vertex="1" parent="-qeI5dG_QsON_zAscdc0-24">
          <mxGeometry x="20" width="60" height="30" as="geometry">
            <mxRectangle width="60" height="30" as="alternateBounds" />
          </mxGeometry>
        </mxCell>
        <mxCell id="-qeI5dG_QsON_zAscdc0-27" value="Credit_line" style="shape=table;startSize=30;container=1;collapsible=1;childLayout=tableLayout;fixedRows=1;rowLines=0;fontStyle=1;align=center;resizeLast=1;" vertex="1" parent="1">
          <mxGeometry x="207" y="652" width="80" height="60" as="geometry" />
        </mxCell>
        <mxCell id="-qeI5dG_QsON_zAscdc0-28" value="" style="shape=partialRectangle;collapsible=0;dropTarget=0;pointerEvents=0;fillColor=none;points=[[0,0.5],[1,0.5]];portConstraint=eastwest;top=0;left=0;right=0;bottom=1;" vertex="1" parent="-qeI5dG_QsON_zAscdc0-27">
          <mxGeometry y="30" width="80" height="30" as="geometry" />
        </mxCell>
        <mxCell id="-qeI5dG_QsON_zAscdc0-29" value="PK" style="shape=partialRectangle;overflow=hidden;connectable=0;fillColor=none;top=0;left=0;bottom=0;right=0;fontStyle=1;" vertex="1" parent="-qeI5dG_QsON_zAscdc0-28">
          <mxGeometry width="23" height="30" as="geometry">
            <mxRectangle width="23" height="30" as="alternateBounds" />
          </mxGeometry>
        </mxCell>
        <mxCell id="-qeI5dG_QsON_zAscdc0-30" value="loan_id" style="shape=partialRectangle;overflow=hidden;connectable=0;fillColor=none;top=0;left=0;bottom=0;right=0;align=left;spacingLeft=6;fontStyle=5;" vertex="1" parent="-qeI5dG_QsON_zAscdc0-28">
          <mxGeometry x="23" width="57" height="30" as="geometry">
            <mxRectangle width="57" height="30" as="alternateBounds" />
          </mxGeometry>
        </mxCell>
        <mxCell id="-qeI5dG_QsON_zAscdc0-31" value="" style="edgeStyle=orthogonalEdgeStyle;rounded=0;orthogonalLoop=1;jettySize=auto;html=1;fontSize=6;endArrow=none;endFill=0;exitX=0.467;exitY=0.032;exitDx=0;exitDy=0;exitPerimeter=0;" edge="1" parent="1">
          <mxGeometry relative="1" as="geometry">
            <mxPoint x="310.619" y="650.6400000000001" as="sourcePoint" />
            <mxPoint x="310" y="622" as="targetPoint" />
            <Array as="points">
              <mxPoint x="311" y="652" />
              <mxPoint x="310" y="652" />
            </Array>
          </mxGeometry>
        </mxCell>
        <mxCell id="-qeI5dG_QsON_zAscdc0-32" value="Personal" style="shape=table;startSize=30;container=1;collapsible=1;childLayout=tableLayout;fixedRows=1;rowLines=0;fontStyle=1;align=center;resizeLast=1;" vertex="1" parent="1">
          <mxGeometry x="300" y="652" width="90" height="60" as="geometry" />
        </mxCell>
        <mxCell id="-qeI5dG_QsON_zAscdc0-33" value="" style="shape=partialRectangle;collapsible=0;dropTarget=0;pointerEvents=0;fillColor=none;points=[[0,0.5],[1,0.5]];portConstraint=eastwest;top=0;left=0;right=0;bottom=1;" vertex="1" parent="-qeI5dG_QsON_zAscdc0-32">
          <mxGeometry y="30" width="90" height="30" as="geometry" />
        </mxCell>
        <mxCell id="-qeI5dG_QsON_zAscdc0-34" value="PK" style="shape=partialRectangle;overflow=hidden;connectable=0;fillColor=none;top=0;left=0;bottom=0;right=0;fontStyle=1;" vertex="1" parent="-qeI5dG_QsON_zAscdc0-33">
          <mxGeometry width="20" height="30" as="geometry">
            <mxRectangle width="20" height="30" as="alternateBounds" />
          </mxGeometry>
        </mxCell>
        <mxCell id="-qeI5dG_QsON_zAscdc0-35" value="loan_id" style="shape=partialRectangle;overflow=hidden;connectable=0;fillColor=none;top=0;left=0;bottom=0;right=0;align=left;spacingLeft=6;fontStyle=5;" vertex="1" parent="-qeI5dG_QsON_zAscdc0-33">
          <mxGeometry x="20" width="70" height="30" as="geometry">
            <mxRectangle width="70" height="30" as="alternateBounds" />
          </mxGeometry>
        </mxCell>
      </root>
    </mxGraphModel>
  </diagram>
  <diagram id="rupF1iqTMcRlqfwjCK0x" name="Page-2">
    <mxGraphModel dx="1166" dy="671" grid="1" gridSize="10" guides="1" tooltips="1" connect="1" arrows="1" fold="1" page="1" pageScale="1" pageWidth="850" pageHeight="1400" math="0" shadow="0">
      <root>
        <mxCell id="0" />
        <mxCell id="1" parent="0" />
        <mxCell id="QScJFIZneg4mxNAnaYGr-2" value="Transactions" style="shape=table;startSize=30;container=1;collapsible=1;childLayout=tableLayout;fixedRows=1;rowLines=0;fontStyle=0;align=center;resizeLast=1;" vertex="1" parent="1">
          <mxGeometry x="455" y="120" width="250" height="160" as="geometry" />
        </mxCell>
        <mxCell id="hUYT-KJgxPK1LCSMFyVZ-7" value="" style="shape=tableRow;horizontal=0;startSize=0;swimlaneHead=0;swimlaneBody=0;fillColor=none;collapsible=0;dropTarget=0;points=[[0,0.5],[1,0.5]];portConstraint=eastwest;top=0;left=0;right=0;bottom=0;fontSize=12;strokeWidth=1;" vertex="1" parent="QScJFIZneg4mxNAnaYGr-2">
          <mxGeometry y="30" width="250" height="30" as="geometry" />
        </mxCell>
        <mxCell id="hUYT-KJgxPK1LCSMFyVZ-8" value="" style="shape=partialRectangle;connectable=0;fillColor=none;top=0;left=0;bottom=0;right=0;editable=1;overflow=hidden;fontSize=12;strokeWidth=1;" vertex="1" parent="hUYT-KJgxPK1LCSMFyVZ-7">
          <mxGeometry width="30" height="30" as="geometry">
            <mxRectangle width="30" height="30" as="alternateBounds" />
          </mxGeometry>
        </mxCell>
        <mxCell id="hUYT-KJgxPK1LCSMFyVZ-9" value="trans_id    PK" style="shape=partialRectangle;connectable=0;fillColor=none;top=0;left=0;bottom=0;right=0;align=left;spacingLeft=6;overflow=hidden;fontSize=12;strokeWidth=1;" vertex="1" parent="hUYT-KJgxPK1LCSMFyVZ-7">
          <mxGeometry x="30" width="220" height="30" as="geometry">
            <mxRectangle width="220" height="30" as="alternateBounds" />
          </mxGeometry>
        </mxCell>
        <mxCell id="QScJFIZneg4mxNAnaYGr-9" value="" style="shape=partialRectangle;collapsible=0;dropTarget=0;pointerEvents=0;fillColor=none;points=[[0,0.5],[1,0.5]];portConstraint=eastwest;top=0;left=0;right=0;bottom=0;fontStyle=0" vertex="1" parent="QScJFIZneg4mxNAnaYGr-2">
          <mxGeometry y="60" width="250" height="30" as="geometry" />
        </mxCell>
        <mxCell id="QScJFIZneg4mxNAnaYGr-10" value="" style="shape=partialRectangle;overflow=hidden;connectable=0;fillColor=none;top=0;left=0;bottom=0;right=0;fontStyle=0" vertex="1" parent="QScJFIZneg4mxNAnaYGr-9">
          <mxGeometry width="30" height="30" as="geometry">
            <mxRectangle width="30" height="30" as="alternateBounds" />
          </mxGeometry>
        </mxCell>
        <mxCell id="QScJFIZneg4mxNAnaYGr-11" value="date_time " style="shape=partialRectangle;overflow=hidden;connectable=0;fillColor=none;top=0;left=0;bottom=0;right=0;align=left;spacingLeft=6;fontStyle=0" vertex="1" parent="QScJFIZneg4mxNAnaYGr-9">
          <mxGeometry x="30" width="220" height="30" as="geometry">
            <mxRectangle width="220" height="30" as="alternateBounds" />
          </mxGeometry>
        </mxCell>
        <mxCell id="QScJFIZneg4mxNAnaYGr-12" value="" style="shape=tableRow;horizontal=0;startSize=0;swimlaneHead=0;swimlaneBody=0;fillColor=none;collapsible=0;dropTarget=0;points=[[0,0.5],[1,0.5]];portConstraint=eastwest;top=0;left=0;right=0;bottom=0;fontStyle=0" vertex="1" parent="QScJFIZneg4mxNAnaYGr-2">
          <mxGeometry y="90" width="250" height="30" as="geometry" />
        </mxCell>
        <mxCell id="QScJFIZneg4mxNAnaYGr-13" value="" style="shape=partialRectangle;connectable=0;fillColor=none;top=0;left=0;bottom=0;right=0;editable=1;overflow=hidden;fontStyle=0" vertex="1" parent="QScJFIZneg4mxNAnaYGr-12">
          <mxGeometry width="30" height="30" as="geometry">
            <mxRectangle width="30" height="30" as="alternateBounds" />
          </mxGeometry>
        </mxCell>
        <mxCell id="QScJFIZneg4mxNAnaYGr-14" value="amount" style="shape=partialRectangle;connectable=0;fillColor=none;top=0;left=0;bottom=0;right=0;align=left;spacingLeft=6;overflow=hidden;fontStyle=0" vertex="1" parent="QScJFIZneg4mxNAnaYGr-12">
          <mxGeometry x="30" width="220" height="30" as="geometry">
            <mxRectangle width="220" height="30" as="alternateBounds" />
          </mxGeometry>
        </mxCell>
        <mxCell id="QScJFIZneg4mxNAnaYGr-15" value="" style="shape=tableRow;horizontal=0;startSize=0;swimlaneHead=0;swimlaneBody=0;fillColor=none;collapsible=0;dropTarget=0;points=[[0,0.5],[1,0.5]];portConstraint=eastwest;top=0;left=0;right=0;bottom=0;fontSize=10;strokeWidth=1;fontStyle=0" vertex="1" parent="QScJFIZneg4mxNAnaYGr-2">
          <mxGeometry y="120" width="250" height="30" as="geometry" />
        </mxCell>
        <mxCell id="QScJFIZneg4mxNAnaYGr-16" value="" style="shape=partialRectangle;connectable=0;fillColor=none;top=0;left=0;bottom=0;right=0;editable=1;overflow=hidden;fontSize=10;strokeWidth=1;fontStyle=0" vertex="1" parent="QScJFIZneg4mxNAnaYGr-15">
          <mxGeometry width="30" height="30" as="geometry">
            <mxRectangle width="30" height="30" as="alternateBounds" />
          </mxGeometry>
        </mxCell>
        <mxCell id="QScJFIZneg4mxNAnaYGr-17" value="type" style="shape=partialRectangle;connectable=0;fillColor=none;top=0;left=0;bottom=0;right=0;align=left;spacingLeft=6;overflow=hidden;fontSize=10;strokeWidth=1;fontStyle=0" vertex="1" parent="QScJFIZneg4mxNAnaYGr-15">
          <mxGeometry x="30" width="220" height="30" as="geometry">
            <mxRectangle width="220" height="30" as="alternateBounds" />
          </mxGeometry>
        </mxCell>
        <mxCell id="QScJFIZneg4mxNAnaYGr-18" value="Payments" style="shape=table;startSize=30;container=1;collapsible=1;childLayout=tableLayout;fixedRows=1;rowLines=0;fontStyle=0;align=center;resizeLast=1;" vertex="1" parent="1">
          <mxGeometry x="460" y="394.9" width="250" height="184" as="geometry" />
        </mxCell>
        <mxCell id="hUYT-KJgxPK1LCSMFyVZ-1" value="" style="shape=tableRow;horizontal=0;startSize=0;swimlaneHead=0;swimlaneBody=0;fillColor=none;collapsible=0;dropTarget=0;points=[[0,0.5],[1,0.5]];portConstraint=eastwest;top=0;left=0;right=0;bottom=0;fontSize=8;strokeWidth=1;fontStyle=0" vertex="1" parent="QScJFIZneg4mxNAnaYGr-18">
          <mxGeometry y="30" width="250" height="30" as="geometry" />
        </mxCell>
        <mxCell id="hUYT-KJgxPK1LCSMFyVZ-2" value="" style="shape=partialRectangle;connectable=0;fillColor=none;top=0;left=0;bottom=0;right=0;editable=1;overflow=hidden;fontSize=8;strokeWidth=1;fontStyle=0" vertex="1" parent="hUYT-KJgxPK1LCSMFyVZ-1">
          <mxGeometry width="30" height="30" as="geometry">
            <mxRectangle width="30" height="30" as="alternateBounds" />
          </mxGeometry>
        </mxCell>
        <mxCell id="hUYT-KJgxPK1LCSMFyVZ-3" value="reference_no    PK" style="shape=partialRectangle;connectable=0;fillColor=none;top=0;left=0;bottom=0;right=0;align=left;spacingLeft=6;overflow=hidden;fontSize=12;strokeWidth=1;fontStyle=0" vertex="1" parent="hUYT-KJgxPK1LCSMFyVZ-1">
          <mxGeometry x="30" width="220" height="30" as="geometry">
            <mxRectangle width="220" height="30" as="alternateBounds" />
          </mxGeometry>
        </mxCell>
        <mxCell id="QScJFIZneg4mxNAnaYGr-22" value="" style="shape=partialRectangle;collapsible=0;dropTarget=0;pointerEvents=0;fillColor=none;points=[[0,0.5],[1,0.5]];portConstraint=eastwest;top=0;left=0;right=0;bottom=0;fontStyle=0" vertex="1" parent="QScJFIZneg4mxNAnaYGr-18">
          <mxGeometry y="60" width="250" height="30" as="geometry" />
        </mxCell>
        <mxCell id="QScJFIZneg4mxNAnaYGr-23" value="" style="shape=partialRectangle;overflow=hidden;connectable=0;fillColor=none;top=0;left=0;bottom=0;right=0;fontStyle=0" vertex="1" parent="QScJFIZneg4mxNAnaYGr-22">
          <mxGeometry width="30" height="30" as="geometry">
            <mxRectangle width="30" height="30" as="alternateBounds" />
          </mxGeometry>
        </mxCell>
        <mxCell id="QScJFIZneg4mxNAnaYGr-24" value="loan_id  " style="shape=partialRectangle;overflow=hidden;connectable=0;fillColor=none;top=0;left=0;bottom=0;right=0;align=left;spacingLeft=6;fontStyle=0" vertex="1" parent="QScJFIZneg4mxNAnaYGr-22">
          <mxGeometry x="30" width="220" height="30" as="geometry">
            <mxRectangle width="220" height="30" as="alternateBounds" />
          </mxGeometry>
        </mxCell>
        <mxCell id="QScJFIZneg4mxNAnaYGr-25" value="" style="shape=partialRectangle;collapsible=0;dropTarget=0;pointerEvents=0;fillColor=none;points=[[0,0.5],[1,0.5]];portConstraint=eastwest;top=0;left=0;right=0;bottom=0;fontStyle=0" vertex="1" parent="QScJFIZneg4mxNAnaYGr-18">
          <mxGeometry y="90" width="250" height="30" as="geometry" />
        </mxCell>
        <mxCell id="QScJFIZneg4mxNAnaYGr-26" value="" style="shape=partialRectangle;overflow=hidden;connectable=0;fillColor=none;top=0;left=0;bottom=0;right=0;fontStyle=0" vertex="1" parent="QScJFIZneg4mxNAnaYGr-25">
          <mxGeometry width="30" height="30" as="geometry">
            <mxRectangle width="30" height="30" as="alternateBounds" />
          </mxGeometry>
        </mxCell>
        <mxCell id="QScJFIZneg4mxNAnaYGr-27" value="date_time" style="shape=partialRectangle;overflow=hidden;connectable=0;fillColor=none;top=0;left=0;bottom=0;right=0;align=left;spacingLeft=6;fontStyle=0" vertex="1" parent="QScJFIZneg4mxNAnaYGr-25">
          <mxGeometry x="30" width="220" height="30" as="geometry">
            <mxRectangle width="220" height="30" as="alternateBounds" />
          </mxGeometry>
        </mxCell>
        <mxCell id="QScJFIZneg4mxNAnaYGr-28" value="" style="shape=tableRow;horizontal=0;startSize=0;swimlaneHead=0;swimlaneBody=0;fillColor=none;collapsible=0;dropTarget=0;points=[[0,0.5],[1,0.5]];portConstraint=eastwest;top=0;left=0;right=0;bottom=0;fontStyle=0" vertex="1" parent="QScJFIZneg4mxNAnaYGr-18">
          <mxGeometry y="120" width="250" height="30" as="geometry" />
        </mxCell>
        <mxCell id="QScJFIZneg4mxNAnaYGr-29" value="" style="shape=partialRectangle;connectable=0;fillColor=none;top=0;left=0;bottom=0;right=0;editable=1;overflow=hidden;fontStyle=0" vertex="1" parent="QScJFIZneg4mxNAnaYGr-28">
          <mxGeometry width="30" height="30" as="geometry">
            <mxRectangle width="30" height="30" as="alternateBounds" />
          </mxGeometry>
        </mxCell>
        <mxCell id="QScJFIZneg4mxNAnaYGr-30" value="amount" style="shape=partialRectangle;connectable=0;fillColor=none;top=0;left=0;bottom=0;right=0;align=left;spacingLeft=6;overflow=hidden;fontStyle=0" vertex="1" parent="QScJFIZneg4mxNAnaYGr-28">
          <mxGeometry x="30" width="220" height="30" as="geometry">
            <mxRectangle width="220" height="30" as="alternateBounds" />
          </mxGeometry>
        </mxCell>
        <mxCell id="QScJFIZneg4mxNAnaYGr-31" value="" style="shape=tableRow;horizontal=0;startSize=0;swimlaneHead=0;swimlaneBody=0;fillColor=none;collapsible=0;dropTarget=0;points=[[0,0.5],[1,0.5]];portConstraint=eastwest;top=0;left=0;right=0;bottom=0;fontSize=10;strokeWidth=1;fontStyle=0" vertex="1" parent="QScJFIZneg4mxNAnaYGr-18">
          <mxGeometry y="150" width="250" height="24" as="geometry" />
        </mxCell>
        <mxCell id="QScJFIZneg4mxNAnaYGr-32" value="" style="shape=partialRectangle;connectable=0;fillColor=none;top=0;left=0;bottom=0;right=0;editable=1;overflow=hidden;fontSize=10;strokeWidth=1;fontStyle=0" vertex="1" parent="QScJFIZneg4mxNAnaYGr-31">
          <mxGeometry width="30" height="24" as="geometry">
            <mxRectangle width="30" height="24" as="alternateBounds" />
          </mxGeometry>
        </mxCell>
        <mxCell id="QScJFIZneg4mxNAnaYGr-33" value="type" style="shape=partialRectangle;connectable=0;fillColor=none;top=0;left=0;bottom=0;right=0;align=left;spacingLeft=6;overflow=hidden;fontSize=10;strokeWidth=1;fontStyle=0" vertex="1" parent="QScJFIZneg4mxNAnaYGr-31">
          <mxGeometry x="30" width="220" height="24" as="geometry">
            <mxRectangle width="220" height="24" as="alternateBounds" />
          </mxGeometry>
        </mxCell>
        <mxCell id="QScJFIZneg4mxNAnaYGr-34" value="Accounts" style="shape=table;startSize=30;container=1;collapsible=1;childLayout=tableLayout;fixedRows=1;rowLines=0;fontStyle=0;align=center;resizeLast=1;" vertex="1" parent="1">
          <mxGeometry x="127.5" y="120" width="220" height="120" as="geometry" />
        </mxCell>
        <mxCell id="hUYT-KJgxPK1LCSMFyVZ-10" value="" style="shape=tableRow;horizontal=0;startSize=0;swimlaneHead=0;swimlaneBody=0;fillColor=none;collapsible=0;dropTarget=0;points=[[0,0.5],[1,0.5]];portConstraint=eastwest;top=0;left=0;right=0;bottom=0;fontSize=12;strokeWidth=1;" vertex="1" parent="QScJFIZneg4mxNAnaYGr-34">
          <mxGeometry y="30" width="220" height="30" as="geometry" />
        </mxCell>
        <mxCell id="hUYT-KJgxPK1LCSMFyVZ-11" value="" style="shape=partialRectangle;connectable=0;fillColor=none;top=0;left=0;bottom=0;right=0;editable=1;overflow=hidden;fontSize=12;strokeWidth=1;" vertex="1" parent="hUYT-KJgxPK1LCSMFyVZ-10">
          <mxGeometry width="30" height="30" as="geometry">
            <mxRectangle width="30" height="30" as="alternateBounds" />
          </mxGeometry>
        </mxCell>
        <mxCell id="hUYT-KJgxPK1LCSMFyVZ-12" value="acc_no    PK" style="shape=partialRectangle;connectable=0;fillColor=none;top=0;left=0;bottom=0;right=0;align=left;spacingLeft=6;overflow=hidden;fontSize=12;strokeWidth=1;" vertex="1" parent="hUYT-KJgxPK1LCSMFyVZ-10">
          <mxGeometry x="30" width="190" height="30" as="geometry">
            <mxRectangle width="190" height="30" as="alternateBounds" />
          </mxGeometry>
        </mxCell>
        <mxCell id="QScJFIZneg4mxNAnaYGr-38" value="" style="shape=partialRectangle;collapsible=0;dropTarget=0;pointerEvents=0;fillColor=none;points=[[0,0.5],[1,0.5]];portConstraint=eastwest;top=0;left=0;right=0;bottom=0;fontStyle=0" vertex="1" parent="QScJFIZneg4mxNAnaYGr-34">
          <mxGeometry y="60" width="220" height="30" as="geometry" />
        </mxCell>
        <mxCell id="QScJFIZneg4mxNAnaYGr-39" value="" style="shape=partialRectangle;overflow=hidden;connectable=0;fillColor=none;top=0;left=0;bottom=0;right=0;fontStyle=0" vertex="1" parent="QScJFIZneg4mxNAnaYGr-38">
          <mxGeometry width="30" height="30" as="geometry">
            <mxRectangle width="30" height="30" as="alternateBounds" />
          </mxGeometry>
        </mxCell>
        <mxCell id="QScJFIZneg4mxNAnaYGr-40" value="balance" style="shape=partialRectangle;overflow=hidden;connectable=0;fillColor=none;top=0;left=0;bottom=0;right=0;align=left;spacingLeft=6;fontStyle=0" vertex="1" parent="QScJFIZneg4mxNAnaYGr-38">
          <mxGeometry x="30" width="190" height="30" as="geometry">
            <mxRectangle width="190" height="30" as="alternateBounds" />
          </mxGeometry>
        </mxCell>
        <mxCell id="QScJFIZneg4mxNAnaYGr-41" value="" style="shape=tableRow;horizontal=0;startSize=0;swimlaneHead=0;swimlaneBody=0;fillColor=none;collapsible=0;dropTarget=0;points=[[0,0.5],[1,0.5]];portConstraint=eastwest;top=0;left=0;right=0;bottom=0;fontStyle=0" vertex="1" parent="QScJFIZneg4mxNAnaYGr-34">
          <mxGeometry y="90" width="220" height="30" as="geometry" />
        </mxCell>
        <mxCell id="QScJFIZneg4mxNAnaYGr-42" value="" style="shape=partialRectangle;connectable=0;fillColor=none;top=0;left=0;bottom=0;right=0;editable=1;overflow=hidden;fontStyle=0" vertex="1" parent="QScJFIZneg4mxNAnaYGr-41">
          <mxGeometry width="30" height="30" as="geometry">
            <mxRectangle width="30" height="30" as="alternateBounds" />
          </mxGeometry>
        </mxCell>
        <mxCell id="QScJFIZneg4mxNAnaYGr-43" value="acc_type" style="shape=partialRectangle;connectable=0;fillColor=none;top=0;left=0;bottom=0;right=0;align=left;spacingLeft=6;overflow=hidden;fontStyle=0" vertex="1" parent="QScJFIZneg4mxNAnaYGr-41">
          <mxGeometry x="30" width="190" height="30" as="geometry">
            <mxRectangle width="190" height="30" as="alternateBounds" />
          </mxGeometry>
        </mxCell>
        <mxCell id="QScJFIZneg4mxNAnaYGr-44" value="" style="endArrow=block;html=1;rounded=0;entryX=0.509;entryY=0.97;entryDx=0;entryDy=0;entryPerimeter=0;startArrow=none;startFill=0;endFill=0;fontStyle=0" edge="1" parent="1" source="QScJFIZneg4mxNAnaYGr-53" target="QScJFIZneg4mxNAnaYGr-41">
          <mxGeometry width="50" height="50" relative="1" as="geometry">
            <mxPoint x="239.39999999999986" y="270.14" as="sourcePoint" />
            <mxPoint x="240" y="250" as="targetPoint" />
          </mxGeometry>
        </mxCell>
        <mxCell id="QScJFIZneg4mxNAnaYGr-47" value="&lt;font style=&quot;font-size: 8px&quot;&gt;(mandataroy, or)&lt;/font&gt;" style="text;html=1;align=center;verticalAlign=middle;resizable=0;points=[];autosize=1;strokeColor=none;fillColor=none;fontStyle=0" vertex="1" parent="1">
          <mxGeometry x="240" y="250" width="70" height="20" as="geometry" />
        </mxCell>
        <mxCell id="QScJFIZneg4mxNAnaYGr-48" value="" style="edgeStyle=orthogonalEdgeStyle;rounded=0;orthogonalLoop=1;jettySize=auto;html=1;fontSize=6;endArrow=none;endFill=0;fontStyle=0" edge="1" parent="1" target="QScJFIZneg4mxNAnaYGr-53">
          <mxGeometry relative="1" as="geometry">
            <mxPoint x="158" y="300" as="sourcePoint" />
            <mxPoint x="158" y="304" as="targetPoint" />
            <Array as="points">
              <mxPoint x="157" y="300" />
              <mxPoint x="157" y="320" />
              <mxPoint x="158" y="320" />
            </Array>
          </mxGeometry>
        </mxCell>
        <mxCell id="QScJFIZneg4mxNAnaYGr-49" value="&lt;span&gt;Saving&lt;/span&gt;" style="whiteSpace=wrap;html=1;align=center;fontSize=10;fontStyle=0" vertex="1" parent="1">
          <mxGeometry x="141.62" y="300" width="50" height="20" as="geometry" />
        </mxCell>
        <mxCell id="QScJFIZneg4mxNAnaYGr-50" value="&lt;span&gt;Checking&lt;/span&gt;" style="whiteSpace=wrap;html=1;align=center;fontSize=10;fontStyle=0" vertex="1" parent="1">
          <mxGeometry x="212.5" y="300" width="50" height="20" as="geometry" />
        </mxCell>
        <mxCell id="QScJFIZneg4mxNAnaYGr-51" value="&lt;span&gt;Trust&lt;/span&gt;" style="whiteSpace=wrap;html=1;align=center;fontSize=10;fontStyle=0" vertex="1" parent="1">
          <mxGeometry x="295.49" y="300" width="50" height="20" as="geometry" />
        </mxCell>
        <mxCell id="QScJFIZneg4mxNAnaYGr-53" value="" style="line;strokeWidth=1;html=1;perimeter=backbonePerimeter;points=[];outlineConnect=0;fontSize=6;textOpacity=90;fontStyle=0" vertex="1" parent="1">
          <mxGeometry x="157.62" y="270" width="170" height="10" as="geometry" />
        </mxCell>
        <mxCell id="QScJFIZneg4mxNAnaYGr-55" value="Loan" style="shape=table;startSize=30;container=1;collapsible=1;childLayout=tableLayout;fixedRows=1;rowLines=0;fontStyle=0;align=center;resizeLast=1;" vertex="1" parent="1">
          <mxGeometry x="130" y="410" width="220" height="90" as="geometry" />
        </mxCell>
        <mxCell id="hUYT-KJgxPK1LCSMFyVZ-4" value="" style="shape=tableRow;horizontal=0;startSize=0;swimlaneHead=0;swimlaneBody=0;fillColor=none;collapsible=0;dropTarget=0;points=[[0,0.5],[1,0.5]];portConstraint=eastwest;top=0;left=0;right=0;bottom=0;fontSize=12;strokeWidth=1;" vertex="1" parent="QScJFIZneg4mxNAnaYGr-55">
          <mxGeometry y="30" width="220" height="30" as="geometry" />
        </mxCell>
        <mxCell id="hUYT-KJgxPK1LCSMFyVZ-5" value="" style="shape=partialRectangle;connectable=0;fillColor=none;top=0;left=0;bottom=0;right=0;editable=1;overflow=hidden;fontSize=12;strokeWidth=1;" vertex="1" parent="hUYT-KJgxPK1LCSMFyVZ-4">
          <mxGeometry width="30" height="30" as="geometry">
            <mxRectangle width="30" height="30" as="alternateBounds" />
          </mxGeometry>
        </mxCell>
        <mxCell id="hUYT-KJgxPK1LCSMFyVZ-6" value="loan_id    PK" style="shape=partialRectangle;connectable=0;fillColor=none;top=0;left=0;bottom=0;right=0;align=left;spacingLeft=6;overflow=hidden;fontSize=12;strokeWidth=1;" vertex="1" parent="hUYT-KJgxPK1LCSMFyVZ-4">
          <mxGeometry x="30" width="190" height="30" as="geometry">
            <mxRectangle width="190" height="30" as="alternateBounds" />
          </mxGeometry>
        </mxCell>
        <mxCell id="QScJFIZneg4mxNAnaYGr-59" value="" style="shape=tableRow;horizontal=0;startSize=0;swimlaneHead=0;swimlaneBody=0;fillColor=none;collapsible=0;dropTarget=0;points=[[0,0.5],[1,0.5]];portConstraint=eastwest;top=0;left=0;right=0;bottom=0;fontStyle=0" vertex="1" parent="QScJFIZneg4mxNAnaYGr-55">
          <mxGeometry y="60" width="220" height="30" as="geometry" />
        </mxCell>
        <mxCell id="QScJFIZneg4mxNAnaYGr-60" value="" style="shape=partialRectangle;connectable=0;fillColor=none;top=0;left=0;bottom=0;right=0;editable=1;overflow=hidden;fontStyle=0" vertex="1" parent="QScJFIZneg4mxNAnaYGr-59">
          <mxGeometry width="30" height="30" as="geometry">
            <mxRectangle width="30" height="30" as="alternateBounds" />
          </mxGeometry>
        </mxCell>
        <mxCell id="QScJFIZneg4mxNAnaYGr-61" value="loan_type" style="shape=partialRectangle;connectable=0;fillColor=none;top=0;left=0;bottom=0;right=0;align=left;spacingLeft=6;overflow=hidden;fontStyle=0" vertex="1" parent="QScJFIZneg4mxNAnaYGr-59">
          <mxGeometry x="30" width="190" height="30" as="geometry">
            <mxRectangle width="190" height="30" as="alternateBounds" />
          </mxGeometry>
        </mxCell>
        <mxCell id="QScJFIZneg4mxNAnaYGr-77" value="&lt;font style=&quot;font-size: 10px&quot;&gt;make&lt;/font&gt;" style="text;html=1;align=center;verticalAlign=middle;resizable=0;points=[];autosize=1;strokeColor=none;fillColor=none;fontSize=6;fontStyle=0" vertex="1" parent="1">
          <mxGeometry x="380" y="180" width="40" height="10" as="geometry" />
        </mxCell>
        <mxCell id="QScJFIZneg4mxNAnaYGr-78" value="&lt;font style=&quot;font-size: 10px&quot;&gt;has&lt;/font&gt;" style="text;html=1;align=center;verticalAlign=middle;resizable=0;points=[];autosize=1;strokeColor=none;fillColor=none;fontSize=6;fontStyle=0" vertex="1" parent="1">
          <mxGeometry x="385" y="450" width="30" height="10" as="geometry" />
        </mxCell>
        <mxCell id="QScJFIZneg4mxNAnaYGr-161" value="" style="endArrow=none;html=1;rounded=0;startArrow=none;startFill=0;endFill=0;fontStyle=0" edge="1" parent="1" target="QScJFIZneg4mxNAnaYGr-53">
          <mxGeometry width="50" height="50" relative="1" as="geometry">
            <mxPoint x="240" y="300" as="sourcePoint" />
            <mxPoint x="240.48000000000002" y="272.1" as="targetPoint" />
          </mxGeometry>
        </mxCell>
        <mxCell id="QScJFIZneg4mxNAnaYGr-162" value="" style="endArrow=none;html=1;rounded=0;startArrow=none;startFill=0;endFill=0;fontStyle=0" edge="1" parent="1">
          <mxGeometry width="50" height="50" relative="1" as="geometry">
            <mxPoint x="327" y="300" as="sourcePoint" />
            <mxPoint x="327" y="275.22222222222223" as="targetPoint" />
          </mxGeometry>
        </mxCell>
        <mxCell id="QScJFIZneg4mxNAnaYGr-163" value="" style="endArrow=block;html=1;rounded=0;entryX=0.509;entryY=0.97;entryDx=0;entryDy=0;entryPerimeter=0;startArrow=none;startFill=0;endFill=0;fontStyle=0" edge="1" parent="1" source="QScJFIZneg4mxNAnaYGr-169">
          <mxGeometry width="50" height="50" relative="1" as="geometry">
            <mxPoint x="238.46999999999986" y="529.04" as="sourcePoint" />
            <mxPoint x="238.54999999999995" y="498" as="targetPoint" />
          </mxGeometry>
        </mxCell>
        <mxCell id="QScJFIZneg4mxNAnaYGr-164" value="&lt;font style=&quot;font-size: 8px&quot;&gt;(mandataroy, or)&lt;/font&gt;" style="text;html=1;align=center;verticalAlign=middle;resizable=0;points=[];autosize=1;strokeColor=none;fillColor=none;fontStyle=0" vertex="1" parent="1">
          <mxGeometry x="239.07" y="508.9" width="70" height="20" as="geometry" />
        </mxCell>
        <mxCell id="QScJFIZneg4mxNAnaYGr-165" value="" style="edgeStyle=orthogonalEdgeStyle;rounded=0;orthogonalLoop=1;jettySize=auto;html=1;fontSize=6;endArrow=none;endFill=0;fontStyle=0" edge="1" parent="1">
          <mxGeometry relative="1" as="geometry">
            <mxPoint x="131.07" y="558.9" as="sourcePoint" />
            <mxPoint x="131.07317073170736" y="533.9121951219512" as="targetPoint" />
            <Array as="points">
              <mxPoint x="130.07" y="558.9" />
              <mxPoint x="130.07" y="578.9" />
              <mxPoint x="131.07" y="578.9" />
            </Array>
          </mxGeometry>
        </mxCell>
        <mxCell id="QScJFIZneg4mxNAnaYGr-166" value="&lt;span&gt;Car&lt;/span&gt;" style="whiteSpace=wrap;html=1;align=center;fontSize=10;fontStyle=0" vertex="1" parent="1">
          <mxGeometry x="107.62" y="558.9" width="50" height="20" as="geometry" />
        </mxCell>
        <mxCell id="QScJFIZneg4mxNAnaYGr-167" value="&lt;span&gt;Credit_line&lt;/span&gt;" style="whiteSpace=wrap;html=1;align=center;fontSize=10;fontStyle=0" vertex="1" parent="1">
          <mxGeometry x="235.57" y="558.9" width="64.43" height="20" as="geometry" />
        </mxCell>
        <mxCell id="QScJFIZneg4mxNAnaYGr-168" value="&lt;span&gt;Trust&lt;/span&gt;" style="whiteSpace=wrap;html=1;align=center;fontSize=10;fontStyle=0" vertex="1" parent="1">
          <mxGeometry x="314.56" y="558.9" width="50" height="20" as="geometry" />
        </mxCell>
        <mxCell id="QScJFIZneg4mxNAnaYGr-169" value="" style="line;strokeWidth=1;html=1;perimeter=backbonePerimeter;points=[];outlineConnect=0;fontSize=6;textOpacity=90;fontStyle=0" vertex="1" parent="1">
          <mxGeometry x="130" y="528.9" width="196.69" height="10" as="geometry" />
        </mxCell>
        <mxCell id="QScJFIZneg4mxNAnaYGr-170" value="" style="endArrow=none;html=1;rounded=0;startArrow=none;startFill=0;endFill=0;fontStyle=0" edge="1" parent="1">
          <mxGeometry width="50" height="50" relative="1" as="geometry">
            <mxPoint x="260.06999999999994" y="558.9" as="sourcePoint" />
            <mxPoint x="260.06999999999994" y="533.9121951219512" as="targetPoint" />
          </mxGeometry>
        </mxCell>
        <mxCell id="QScJFIZneg4mxNAnaYGr-171" value="" style="endArrow=none;html=1;rounded=0;startArrow=none;startFill=0;endFill=0;fontStyle=0" edge="1" parent="1">
          <mxGeometry width="50" height="50" relative="1" as="geometry">
            <mxPoint x="326.69" y="558.9" as="sourcePoint" />
            <mxPoint x="326.69" y="534.1222222222223" as="targetPoint" />
          </mxGeometry>
        </mxCell>
        <mxCell id="QScJFIZneg4mxNAnaYGr-172" value="" style="endArrow=none;html=1;rounded=0;startArrow=none;startFill=0;endFill=0;fontStyle=0" edge="1" parent="1">
          <mxGeometry width="50" height="50" relative="1" as="geometry">
            <mxPoint x="198.06999999999994" y="558.9" as="sourcePoint" />
            <mxPoint x="198.06999999999994" y="533.9121951219512" as="targetPoint" />
          </mxGeometry>
        </mxCell>
        <mxCell id="QScJFIZneg4mxNAnaYGr-173" value="&lt;span&gt;Home&lt;/span&gt;" style="whiteSpace=wrap;html=1;align=center;fontSize=10;fontStyle=0" vertex="1" parent="1">
          <mxGeometry x="172.57" y="558.9" width="50" height="20" as="geometry" />
        </mxCell>
        <mxCell id="QScJFIZneg4mxNAnaYGr-174" value="" style="endArrow=none;html=1;rounded=0;fontSize=8;fontStyle=0" edge="1" parent="1">
          <mxGeometry relative="1" as="geometry">
            <mxPoint x="350" y="470" as="sourcePoint" />
            <mxPoint x="460" y="470" as="targetPoint" />
          </mxGeometry>
        </mxCell>
        <mxCell id="QScJFIZneg4mxNAnaYGr-175" value="1..1" style="text;html=1;align=center;verticalAlign=middle;resizable=0;points=[];autosize=1;strokeColor=none;fillColor=none;fontSize=8;fontStyle=0" vertex="1" parent="1">
          <mxGeometry x="345" y="470" width="30" height="20" as="geometry" />
        </mxCell>
        <mxCell id="QScJFIZneg4mxNAnaYGr-176" value="1..*" style="text;html=1;align=center;verticalAlign=middle;resizable=0;points=[];autosize=1;strokeColor=none;fillColor=none;fontSize=8;fontStyle=0" vertex="1" parent="1">
          <mxGeometry x="425" y="470" width="30" height="20" as="geometry" />
        </mxCell>
        <mxCell id="hUYT-KJgxPK1LCSMFyVZ-13" value="" style="endArrow=none;html=1;rounded=0;fontSize=8;fontStyle=0" edge="1" parent="1">
          <mxGeometry relative="1" as="geometry">
            <mxPoint x="345" y="199.64" as="sourcePoint" />
            <mxPoint x="455" y="199.64" as="targetPoint" />
          </mxGeometry>
        </mxCell>
        <mxCell id="hUYT-KJgxPK1LCSMFyVZ-14" value="1..1" style="text;html=1;align=center;verticalAlign=middle;resizable=0;points=[];autosize=1;strokeColor=none;fillColor=none;fontSize=12;" vertex="1" parent="1">
          <mxGeometry x="340" y="200" width="40" height="20" as="geometry" />
        </mxCell>
        <mxCell id="hUYT-KJgxPK1LCSMFyVZ-15" value="0..*" style="text;html=1;align=center;verticalAlign=middle;resizable=0;points=[];autosize=1;strokeColor=none;fillColor=none;fontSize=12;" vertex="1" parent="1">
          <mxGeometry x="415" y="200" width="30" height="20" as="geometry" />
        </mxCell>
      </root>
    </mxGraphModel>
  </diagram>
  <diagram id="twNl79F4S-m7j67Dcty6" name="Page-3">
    <mxGraphModel dx="1263" dy="727" grid="1" gridSize="10" guides="1" tooltips="1" connect="1" arrows="1" fold="1" page="1" pageScale="1" pageWidth="850" pageHeight="1400" math="0" shadow="0">
      <root>
        <mxCell id="0" />
        <mxCell id="1" parent="0" />
        <mxCell id="eG2Rex4MSmr8NqsP6kdT-1" value="ACCOUNT" style="whiteSpace=wrap;html=1;align=center;fontSize=12;strokeWidth=1;" vertex="1" parent="1">
          <mxGeometry x="130" y="90" width="100" height="30" as="geometry" />
        </mxCell>
        <mxCell id="eG2Rex4MSmr8NqsP6kdT-3" value="SAVING" style="whiteSpace=wrap;html=1;align=center;fontSize=12;strokeWidth=1;" vertex="1" parent="1">
          <mxGeometry x="30" y="220" width="100" height="30" as="geometry" />
        </mxCell>
        <mxCell id="eG2Rex4MSmr8NqsP6kdT-4" value="CHECKING" style="whiteSpace=wrap;html=1;align=center;fontSize=12;strokeWidth=1;" vertex="1" parent="1">
          <mxGeometry x="140" y="220" width="100" height="30" as="geometry" />
        </mxCell>
        <mxCell id="eG2Rex4MSmr8NqsP6kdT-5" value="TRUST" style="whiteSpace=wrap;html=1;align=center;fontSize=12;strokeWidth=1;" vertex="1" parent="1">
          <mxGeometry x="250" y="220" width="100" height="30" as="geometry" />
        </mxCell>
        <mxCell id="eG2Rex4MSmr8NqsP6kdT-6" value="" style="endArrow=none;html=1;rounded=0;fontSize=12;" edge="1" parent="1">
          <mxGeometry relative="1" as="geometry">
            <mxPoint x="179.5" y="120" as="sourcePoint" />
            <mxPoint x="180" y="150" as="targetPoint" />
          </mxGeometry>
        </mxCell>
        <mxCell id="eG2Rex4MSmr8NqsP6kdT-7" value="" style="endArrow=none;html=1;rounded=0;fontSize=12;" edge="1" parent="1">
          <mxGeometry relative="1" as="geometry">
            <mxPoint x="185.75" y="120" as="sourcePoint" />
            <mxPoint x="186" y="150" as="targetPoint" />
            <Array as="points">
              <mxPoint x="186.25" y="120" />
            </Array>
          </mxGeometry>
        </mxCell>
        <mxCell id="eG2Rex4MSmr8NqsP6kdT-8" value="d" style="ellipse;whiteSpace=wrap;html=1;align=center;fontSize=12;strokeWidth=1;" vertex="1" parent="1">
          <mxGeometry x="175" y="150" width="16" height="20" as="geometry" />
        </mxCell>
        <mxCell id="eG2Rex4MSmr8NqsP6kdT-9" value="" style="endArrow=none;html=1;rounded=0;fontSize=12;entryX=0;entryY=1;entryDx=0;entryDy=0;exitX=0.5;exitY=0;exitDx=0;exitDy=0;" edge="1" parent="1" source="eG2Rex4MSmr8NqsP6kdT-3" target="eG2Rex4MSmr8NqsP6kdT-8">
          <mxGeometry relative="1" as="geometry">
            <mxPoint x="90" y="210" as="sourcePoint" />
            <mxPoint x="170" y="170" as="targetPoint" />
          </mxGeometry>
        </mxCell>
        <mxCell id="eG2Rex4MSmr8NqsP6kdT-10" value="" style="endArrow=none;html=1;rounded=0;fontSize=12;entryX=1;entryY=1;entryDx=0;entryDy=0;exitX=0.5;exitY=0;exitDx=0;exitDy=0;" edge="1" parent="1" source="eG2Rex4MSmr8NqsP6kdT-5" target="eG2Rex4MSmr8NqsP6kdT-8">
          <mxGeometry relative="1" as="geometry">
            <mxPoint x="290" y="220" as="sourcePoint" />
            <mxPoint x="387.5284709689506" y="167.29537204139922" as="targetPoint" />
          </mxGeometry>
        </mxCell>
        <mxCell id="eG2Rex4MSmr8NqsP6kdT-15" value="" style="endArrow=none;html=1;rounded=0;fontSize=12;entryX=0.436;entryY=-0.007;entryDx=0;entryDy=0;exitX=0.5;exitY=1;exitDx=0;exitDy=0;entryPerimeter=0;" edge="1" parent="1" source="eG2Rex4MSmr8NqsP6kdT-8" target="eG2Rex4MSmr8NqsP6kdT-4">
          <mxGeometry relative="1" as="geometry">
            <mxPoint x="185" y="190" as="sourcePoint" />
            <mxPoint x="185" y="220" as="targetPoint" />
          </mxGeometry>
        </mxCell>
        <mxCell id="eG2Rex4MSmr8NqsP6kdT-16" value="LOAN" style="whiteSpace=wrap;html=1;align=center;fontSize=12;strokeWidth=1;" vertex="1" parent="1">
          <mxGeometry x="184" y="330" width="100" height="30" as="geometry" />
        </mxCell>
        <mxCell id="eG2Rex4MSmr8NqsP6kdT-17" value="CAR" style="whiteSpace=wrap;html=1;align=center;fontSize=12;strokeWidth=1;" vertex="1" parent="1">
          <mxGeometry x="64" y="460" width="60" height="30" as="geometry" />
        </mxCell>
        <mxCell id="eG2Rex4MSmr8NqsP6kdT-18" value="HOME" style="whiteSpace=wrap;html=1;align=center;fontSize=12;strokeWidth=1;" vertex="1" parent="1">
          <mxGeometry x="150" y="460" width="60" height="30" as="geometry" />
        </mxCell>
        <mxCell id="eG2Rex4MSmr8NqsP6kdT-19" value="PERSONAL" style="whiteSpace=wrap;html=1;align=center;fontSize=12;strokeWidth=1;" vertex="1" parent="1">
          <mxGeometry x="349" y="460" width="76" height="30" as="geometry" />
        </mxCell>
        <mxCell id="eG2Rex4MSmr8NqsP6kdT-20" value="" style="endArrow=none;html=1;rounded=0;fontSize=12;" edge="1" parent="1">
          <mxGeometry relative="1" as="geometry">
            <mxPoint x="233.5" y="360" as="sourcePoint" />
            <mxPoint x="234" y="390" as="targetPoint" />
          </mxGeometry>
        </mxCell>
        <mxCell id="eG2Rex4MSmr8NqsP6kdT-21" value="" style="endArrow=none;html=1;rounded=0;fontSize=12;" edge="1" parent="1">
          <mxGeometry relative="1" as="geometry">
            <mxPoint x="239.75" y="360" as="sourcePoint" />
            <mxPoint x="240" y="390" as="targetPoint" />
            <Array as="points">
              <mxPoint x="240.25" y="360" />
            </Array>
          </mxGeometry>
        </mxCell>
        <mxCell id="eG2Rex4MSmr8NqsP6kdT-22" value="d" style="ellipse;whiteSpace=wrap;html=1;align=center;fontSize=12;strokeWidth=1;" vertex="1" parent="1">
          <mxGeometry x="229" y="390" width="16" height="20" as="geometry" />
        </mxCell>
        <mxCell id="eG2Rex4MSmr8NqsP6kdT-23" value="" style="endArrow=none;html=1;rounded=0;fontSize=12;entryX=0;entryY=1;entryDx=0;entryDy=0;exitX=0.5;exitY=0;exitDx=0;exitDy=0;" edge="1" parent="1" source="eG2Rex4MSmr8NqsP6kdT-17" target="eG2Rex4MSmr8NqsP6kdT-22">
          <mxGeometry relative="1" as="geometry">
            <mxPoint x="144" y="450" as="sourcePoint" />
            <mxPoint x="224" y="410" as="targetPoint" />
          </mxGeometry>
        </mxCell>
        <mxCell id="eG2Rex4MSmr8NqsP6kdT-24" value="" style="endArrow=none;html=1;rounded=0;fontSize=12;entryX=1;entryY=1;entryDx=0;entryDy=0;exitX=0.5;exitY=0;exitDx=0;exitDy=0;" edge="1" parent="1" source="eG2Rex4MSmr8NqsP6kdT-19" target="eG2Rex4MSmr8NqsP6kdT-22">
          <mxGeometry relative="1" as="geometry">
            <mxPoint x="344" y="460" as="sourcePoint" />
            <mxPoint x="441.5284709689506" y="407.2953720413992" as="targetPoint" />
          </mxGeometry>
        </mxCell>
        <mxCell id="eG2Rex4MSmr8NqsP6kdT-25" value="" style="endArrow=none;html=1;rounded=0;fontSize=12;entryX=0.436;entryY=-0.007;entryDx=0;entryDy=0;exitX=0.5;exitY=1;exitDx=0;exitDy=0;entryPerimeter=0;" edge="1" parent="1" source="eG2Rex4MSmr8NqsP6kdT-22" target="eG2Rex4MSmr8NqsP6kdT-18">
          <mxGeometry relative="1" as="geometry">
            <mxPoint x="239" y="430" as="sourcePoint" />
            <mxPoint x="239" y="460" as="targetPoint" />
          </mxGeometry>
        </mxCell>
        <mxCell id="eG2Rex4MSmr8NqsP6kdT-26" value="CREDIT_LINE" style="whiteSpace=wrap;html=1;align=center;fontSize=12;strokeWidth=1;" vertex="1" parent="1">
          <mxGeometry x="240" y="460" width="95" height="30" as="geometry" />
        </mxCell>
        <mxCell id="eG2Rex4MSmr8NqsP6kdT-27" value="" style="endArrow=none;html=1;rounded=0;fontSize=12;entryX=0.62;entryY=0.039;entryDx=0;entryDy=0;entryPerimeter=0;exitX=0.5;exitY=1;exitDx=0;exitDy=0;" edge="1" parent="1" source="eG2Rex4MSmr8NqsP6kdT-22" target="eG2Rex4MSmr8NqsP6kdT-26">
          <mxGeometry relative="1" as="geometry">
            <mxPoint x="240" y="420" as="sourcePoint" />
            <mxPoint x="240" y="450" as="targetPoint" />
          </mxGeometry>
        </mxCell>
        <mxCell id="eG2Rex4MSmr8NqsP6kdT-29" value="PAYMENT" style="whiteSpace=wrap;html=1;align=center;fontSize=12;strokeWidth=1;" vertex="1" parent="1">
          <mxGeometry x="483" y="330" width="100" height="30" as="geometry" />
        </mxCell>
        <mxCell id="eG2Rex4MSmr8NqsP6kdT-30" value="Date" style="ellipse;whiteSpace=wrap;html=1;align=center;fontSize=12;strokeWidth=1;" vertex="1" parent="1">
          <mxGeometry x="443" y="390" width="60" height="40" as="geometry" />
        </mxCell>
        <mxCell id="eG2Rex4MSmr8NqsP6kdT-31" value="Type" style="ellipse;whiteSpace=wrap;html=1;align=center;fontSize=12;strokeWidth=1;" vertex="1" parent="1">
          <mxGeometry x="513" y="390" width="60" height="40" as="geometry" />
        </mxCell>
        <mxCell id="eG2Rex4MSmr8NqsP6kdT-34" value="Amount" style="ellipse;whiteSpace=wrap;html=1;align=center;fontSize=12;strokeWidth=1;" vertex="1" parent="1">
          <mxGeometry x="583" y="390" width="60" height="40" as="geometry" />
        </mxCell>
        <mxCell id="eG2Rex4MSmr8NqsP6kdT-36" value="" style="endArrow=none;html=1;rounded=0;fontSize=12;entryX=0.121;entryY=1.063;entryDx=0;entryDy=0;entryPerimeter=0;exitX=0.5;exitY=0;exitDx=0;exitDy=0;" edge="1" parent="1" source="eG2Rex4MSmr8NqsP6kdT-30" target="eG2Rex4MSmr8NqsP6kdT-29">
          <mxGeometry relative="1" as="geometry">
            <mxPoint x="443" y="410" as="sourcePoint" />
            <mxPoint x="493" y="370" as="targetPoint" />
          </mxGeometry>
        </mxCell>
        <mxCell id="eG2Rex4MSmr8NqsP6kdT-37" value="" style="endArrow=none;html=1;rounded=0;fontSize=12;entryX=0.437;entryY=1.048;entryDx=0;entryDy=0;entryPerimeter=0;" edge="1" parent="1" source="eG2Rex4MSmr8NqsP6kdT-31" target="eG2Rex4MSmr8NqsP6kdT-29">
          <mxGeometry relative="1" as="geometry">
            <mxPoint x="483" y="400" as="sourcePoint" />
            <mxPoint x="505.10000000000014" y="371.89" as="targetPoint" />
          </mxGeometry>
        </mxCell>
        <mxCell id="eG2Rex4MSmr8NqsP6kdT-38" value="" style="endArrow=none;html=1;rounded=0;fontSize=12;entryX=0.75;entryY=1;entryDx=0;entryDy=0;exitX=0.243;exitY=0.114;exitDx=0;exitDy=0;exitPerimeter=0;" edge="1" parent="1" source="eG2Rex4MSmr8NqsP6kdT-34" target="eG2Rex4MSmr8NqsP6kdT-29">
          <mxGeometry relative="1" as="geometry">
            <mxPoint x="591.4920862654403" y="400.47625879632085" as="sourcePoint" />
            <mxPoint x="581.7" y="371.43999999999994" as="targetPoint" />
          </mxGeometry>
        </mxCell>
        <mxCell id="eG2Rex4MSmr8NqsP6kdT-39" value="TRANSACTION" style="whiteSpace=wrap;html=1;align=center;fontSize=12;strokeWidth=1;" vertex="1" parent="1">
          <mxGeometry x="430" y="90" width="140" height="30" as="geometry" />
        </mxCell>
        <mxCell id="eG2Rex4MSmr8NqsP6kdT-40" value="Date" style="ellipse;whiteSpace=wrap;html=1;align=center;fontSize=12;strokeWidth=1;" vertex="1" parent="1">
          <mxGeometry x="400" y="150" width="60" height="40" as="geometry" />
        </mxCell>
        <mxCell id="eG2Rex4MSmr8NqsP6kdT-41" value="Type" style="ellipse;whiteSpace=wrap;html=1;align=center;fontSize=12;strokeWidth=1;" vertex="1" parent="1">
          <mxGeometry x="470" y="150" width="60" height="40" as="geometry" />
        </mxCell>
        <mxCell id="eG2Rex4MSmr8NqsP6kdT-42" value="Amount" style="ellipse;whiteSpace=wrap;html=1;align=center;fontSize=12;strokeWidth=1;" vertex="1" parent="1">
          <mxGeometry x="540" y="150" width="60" height="40" as="geometry" />
        </mxCell>
        <mxCell id="eG2Rex4MSmr8NqsP6kdT-43" value="" style="endArrow=none;html=1;rounded=0;fontSize=12;entryX=0.121;entryY=1.063;entryDx=0;entryDy=0;entryPerimeter=0;exitX=0.5;exitY=0;exitDx=0;exitDy=0;" edge="1" parent="1" source="eG2Rex4MSmr8NqsP6kdT-40" target="eG2Rex4MSmr8NqsP6kdT-39">
          <mxGeometry relative="1" as="geometry">
            <mxPoint x="400" y="170" as="sourcePoint" />
            <mxPoint x="450" y="130" as="targetPoint" />
          </mxGeometry>
        </mxCell>
        <mxCell id="eG2Rex4MSmr8NqsP6kdT-44" value="" style="endArrow=none;html=1;rounded=0;fontSize=12;entryX=0.437;entryY=1.048;entryDx=0;entryDy=0;entryPerimeter=0;" edge="1" parent="1" source="eG2Rex4MSmr8NqsP6kdT-41" target="eG2Rex4MSmr8NqsP6kdT-39">
          <mxGeometry relative="1" as="geometry">
            <mxPoint x="440" y="160" as="sourcePoint" />
            <mxPoint x="462.10000000000014" y="131.89" as="targetPoint" />
          </mxGeometry>
        </mxCell>
        <mxCell id="eG2Rex4MSmr8NqsP6kdT-45" value="" style="endArrow=none;html=1;rounded=0;fontSize=12;entryX=0.75;entryY=1;entryDx=0;entryDy=0;exitX=0.243;exitY=0.114;exitDx=0;exitDy=0;exitPerimeter=0;" edge="1" parent="1" source="eG2Rex4MSmr8NqsP6kdT-42" target="eG2Rex4MSmr8NqsP6kdT-39">
          <mxGeometry relative="1" as="geometry">
            <mxPoint x="548.4920862654403" y="160.47625879632085" as="sourcePoint" />
            <mxPoint x="538.7" y="131.43999999999994" as="targetPoint" />
          </mxGeometry>
        </mxCell>
        <mxCell id="eG2Rex4MSmr8NqsP6kdT-47" value="MAKE" style="shape=rhombus;double=1;perimeter=rhombusPerimeter;whiteSpace=wrap;html=1;align=center;fontSize=12;strokeWidth=1;" vertex="1" parent="1">
          <mxGeometry x="260" y="75" width="120" height="60" as="geometry" />
        </mxCell>
        <mxCell id="eG2Rex4MSmr8NqsP6kdT-49" style="edgeStyle=orthogonalEdgeStyle;rounded=0;orthogonalLoop=1;jettySize=auto;html=1;exitX=0.929;exitY=0.419;exitDx=0;exitDy=0;entryX=-0.008;entryY=0.345;entryDx=0;entryDy=0;fontSize=12;startArrow=none;startFill=0;endArrow=none;endFill=0;entryPerimeter=0;exitPerimeter=0;" edge="1" parent="1" source="eG2Rex4MSmr8NqsP6kdT-47" target="eG2Rex4MSmr8NqsP6kdT-39">
          <mxGeometry relative="1" as="geometry">
            <mxPoint x="375" y="100" as="sourcePoint" />
            <mxPoint x="425" y="100" as="targetPoint" />
          </mxGeometry>
        </mxCell>
        <mxCell id="eG2Rex4MSmr8NqsP6kdT-50" value="" style="endArrow=none;html=1;rounded=0;fontSize=12;entryX=0;entryY=0.5;entryDx=0;entryDy=0;" edge="1" parent="1" source="eG2Rex4MSmr8NqsP6kdT-1" target="eG2Rex4MSmr8NqsP6kdT-47">
          <mxGeometry relative="1" as="geometry">
            <mxPoint x="230" y="105" as="sourcePoint" />
            <mxPoint x="390" y="105" as="targetPoint" />
          </mxGeometry>
        </mxCell>
        <mxCell id="eG2Rex4MSmr8NqsP6kdT-52" value="" style="endArrow=none;html=1;rounded=0;fontSize=12;exitX=0.903;exitY=0.617;exitDx=0;exitDy=0;exitPerimeter=0;entryX=0;entryY=0.75;entryDx=0;entryDy=0;" edge="1" parent="1" source="eG2Rex4MSmr8NqsP6kdT-47" target="eG2Rex4MSmr8NqsP6kdT-39">
          <mxGeometry relative="1" as="geometry">
            <mxPoint x="374" y="111" as="sourcePoint" />
            <mxPoint x="534" y="111" as="targetPoint" />
          </mxGeometry>
        </mxCell>
        <mxCell id="eG2Rex4MSmr8NqsP6kdT-59" value="MAKE" style="shape=rhombus;double=1;perimeter=rhombusPerimeter;whiteSpace=wrap;html=1;align=center;fontSize=12;strokeWidth=1;" vertex="1" parent="1">
          <mxGeometry x="314" y="315" width="120" height="60" as="geometry" />
        </mxCell>
        <mxCell id="eG2Rex4MSmr8NqsP6kdT-60" style="edgeStyle=orthogonalEdgeStyle;rounded=0;orthogonalLoop=1;jettySize=auto;html=1;exitX=0.929;exitY=0.419;exitDx=0;exitDy=0;entryX=-0.008;entryY=0.345;entryDx=0;entryDy=0;fontSize=12;startArrow=none;startFill=0;endArrow=none;endFill=0;entryPerimeter=0;exitPerimeter=0;" edge="1" parent="1" source="eG2Rex4MSmr8NqsP6kdT-59">
          <mxGeometry relative="1" as="geometry">
            <mxPoint x="429" y="340" as="sourcePoint" />
            <mxPoint x="482.8800000000001" y="340.3499999999999" as="targetPoint" />
          </mxGeometry>
        </mxCell>
        <mxCell id="eG2Rex4MSmr8NqsP6kdT-61" value="" style="endArrow=none;html=1;rounded=0;fontSize=12;entryX=0;entryY=0.5;entryDx=0;entryDy=0;" edge="1" parent="1" target="eG2Rex4MSmr8NqsP6kdT-59">
          <mxGeometry relative="1" as="geometry">
            <mxPoint x="284" y="345" as="sourcePoint" />
            <mxPoint x="444" y="345" as="targetPoint" />
          </mxGeometry>
        </mxCell>
        <mxCell id="eG2Rex4MSmr8NqsP6kdT-62" value="" style="endArrow=none;html=1;rounded=0;fontSize=12;exitX=0.903;exitY=0.617;exitDx=0;exitDy=0;exitPerimeter=0;entryX=0;entryY=0.75;entryDx=0;entryDy=0;" edge="1" parent="1" source="eG2Rex4MSmr8NqsP6kdT-59">
          <mxGeometry relative="1" as="geometry">
            <mxPoint x="428" y="351" as="sourcePoint" />
            <mxPoint x="484" y="352.5" as="targetPoint" />
          </mxGeometry>
        </mxCell>
      </root>
    </mxGraphModel>
  </diagram>
  <diagram id="mMHftMO78_0sAjcCinIN" name="Page-4">
    <mxGraphModel dx="1309" dy="264" grid="1" gridSize="10" guides="1" tooltips="1" connect="1" arrows="1" fold="1" page="1" pageScale="1" pageWidth="850" pageHeight="1400" math="0" shadow="0">
      <root>
        <mxCell id="0" />
        <mxCell id="1" parent="0" />
        <mxCell id="HjxqD9lhztfknBiD-iUj-1" value="EMPLOYEE" style="whiteSpace=wrap;html=1;align=center;fontSize=7;strokeWidth=1;" vertex="1" parent="1">
          <mxGeometry x="233" y="165" width="100" height="30" as="geometry" />
        </mxCell>
        <mxCell id="HjxqD9lhztfknBiD-iUj-2" value="DRIVER" style="whiteSpace=wrap;html=1;align=center;fontSize=7;strokeWidth=1;" vertex="1" parent="1">
          <mxGeometry x="60" y="295" width="100" height="30" as="geometry" />
        </mxCell>
        <mxCell id="HjxqD9lhztfknBiD-iUj-4" value="OPERATOR" style="whiteSpace=wrap;html=1;align=center;fontSize=7;strokeWidth=1;" vertex="1" parent="1">
          <mxGeometry x="350" y="295" width="100" height="30" as="geometry" />
        </mxCell>
        <mxCell id="HjxqD9lhztfknBiD-iUj-5" value="" style="endArrow=none;html=1;rounded=0;fontSize=7;" edge="1" parent="1">
          <mxGeometry relative="1" as="geometry">
            <mxPoint x="279.5" y="195" as="sourcePoint" />
            <mxPoint x="280" y="224.9999999999999" as="targetPoint" />
          </mxGeometry>
        </mxCell>
        <mxCell id="HjxqD9lhztfknBiD-iUj-6" value="" style="endArrow=none;html=1;rounded=0;fontSize=7;" edge="1" parent="1">
          <mxGeometry relative="1" as="geometry">
            <mxPoint x="285.75" y="195" as="sourcePoint" />
            <mxPoint x="286" y="224.9999999999999" as="targetPoint" />
            <Array as="points">
              <mxPoint x="286.25" y="195" />
            </Array>
          </mxGeometry>
        </mxCell>
        <mxCell id="HjxqD9lhztfknBiD-iUj-7" value="d" style="ellipse;whiteSpace=wrap;html=1;align=center;fontSize=7;strokeWidth=1;" vertex="1" parent="1">
          <mxGeometry x="275" y="225" width="16" height="20" as="geometry" />
        </mxCell>
        <mxCell id="HjxqD9lhztfknBiD-iUj-8" value="" style="endArrow=none;html=1;rounded=0;fontSize=7;entryX=0;entryY=1;entryDx=0;entryDy=0;exitX=0.5;exitY=0;exitDx=0;exitDy=0;" edge="1" parent="1" source="HjxqD9lhztfknBiD-iUj-2" target="HjxqD9lhztfknBiD-iUj-7">
          <mxGeometry relative="1" as="geometry">
            <mxPoint x="190" y="285" as="sourcePoint" />
            <mxPoint x="270" y="245" as="targetPoint" />
          </mxGeometry>
        </mxCell>
        <mxCell id="HjxqD9lhztfknBiD-iUj-9" value="" style="endArrow=none;html=1;rounded=0;fontSize=7;entryX=1;entryY=1;entryDx=0;entryDy=0;exitX=0.5;exitY=0;exitDx=0;exitDy=0;" edge="1" parent="1" source="HjxqD9lhztfknBiD-iUj-4" target="HjxqD9lhztfknBiD-iUj-7">
          <mxGeometry relative="1" as="geometry">
            <mxPoint x="390" y="295" as="sourcePoint" />
            <mxPoint x="487.5284709689506" y="242.29537204139922" as="targetPoint" />
          </mxGeometry>
        </mxCell>
        <mxCell id="HjxqD9lhztfknBiD-iUj-30" value="TRANSACTION" style="whiteSpace=wrap;html=1;align=center;fontSize=7;strokeWidth=1;" vertex="1" parent="1">
          <mxGeometry x="530" y="165" width="140" height="30" as="geometry" />
        </mxCell>
        <mxCell id="HjxqD9lhztfknBiD-iUj-31" value="Date" style="ellipse;whiteSpace=wrap;html=1;align=center;fontSize=7;strokeWidth=1;" vertex="1" parent="1">
          <mxGeometry x="500" y="225" width="60" height="40" as="geometry" />
        </mxCell>
        <mxCell id="HjxqD9lhztfknBiD-iUj-32" value="Type" style="ellipse;whiteSpace=wrap;html=1;align=center;fontSize=7;strokeWidth=1;" vertex="1" parent="1">
          <mxGeometry x="570" y="225" width="60" height="40" as="geometry" />
        </mxCell>
        <mxCell id="HjxqD9lhztfknBiD-iUj-33" value="Amount" style="ellipse;whiteSpace=wrap;html=1;align=center;fontSize=7;strokeWidth=1;" vertex="1" parent="1">
          <mxGeometry x="640" y="225" width="60" height="40" as="geometry" />
        </mxCell>
        <mxCell id="HjxqD9lhztfknBiD-iUj-34" value="" style="endArrow=none;html=1;rounded=0;fontSize=7;entryX=0.121;entryY=1.063;entryDx=0;entryDy=0;entryPerimeter=0;exitX=0.5;exitY=0;exitDx=0;exitDy=0;" edge="1" parent="1" source="HjxqD9lhztfknBiD-iUj-31" target="HjxqD9lhztfknBiD-iUj-30">
          <mxGeometry relative="1" as="geometry">
            <mxPoint x="500" y="245" as="sourcePoint" />
            <mxPoint x="550" y="205" as="targetPoint" />
          </mxGeometry>
        </mxCell>
        <mxCell id="HjxqD9lhztfknBiD-iUj-35" value="" style="endArrow=none;html=1;rounded=0;fontSize=7;entryX=0.437;entryY=1.048;entryDx=0;entryDy=0;entryPerimeter=0;" edge="1" parent="1" source="HjxqD9lhztfknBiD-iUj-32" target="HjxqD9lhztfknBiD-iUj-30">
          <mxGeometry relative="1" as="geometry">
            <mxPoint x="540" y="235" as="sourcePoint" />
            <mxPoint x="562.1000000000001" y="206.89" as="targetPoint" />
          </mxGeometry>
        </mxCell>
        <mxCell id="HjxqD9lhztfknBiD-iUj-36" value="" style="endArrow=none;html=1;rounded=0;fontSize=7;entryX=0.75;entryY=1;entryDx=0;entryDy=0;exitX=0.243;exitY=0.114;exitDx=0;exitDy=0;exitPerimeter=0;" edge="1" parent="1" source="HjxqD9lhztfknBiD-iUj-33" target="HjxqD9lhztfknBiD-iUj-30">
          <mxGeometry relative="1" as="geometry">
            <mxPoint x="648.4920862654403" y="235.47625879632085" as="sourcePoint" />
            <mxPoint x="638.7" y="206.43999999999994" as="targetPoint" />
          </mxGeometry>
        </mxCell>
        <mxCell id="HjxqD9lhztfknBiD-iUj-45" value="" style="endArrow=none;html=1;rounded=0;fontSize=7;entryX=0.125;entryY=-0.013;entryDx=0;entryDy=0;entryPerimeter=0;exitX=0.593;exitY=1.022;exitDx=0;exitDy=0;exitPerimeter=0;" edge="1" parent="1" source="HjxqD9lhztfknBiD-iUj-46" target="HjxqD9lhztfknBiD-iUj-1">
          <mxGeometry relative="1" as="geometry">
            <mxPoint x="210" y="120" as="sourcePoint" />
            <mxPoint x="234" y="149" as="targetPoint" />
          </mxGeometry>
        </mxCell>
        <mxCell id="HjxqD9lhztfknBiD-iUj-46" value="&lt;font style=&quot;font-size: 7px;&quot;&gt;Personal&lt;br style=&quot;font-size: 7px;&quot;&gt;Number&lt;/font&gt;" style="ellipse;whiteSpace=wrap;html=1;align=center;fontSize=7;strokeWidth=1;" vertex="1" parent="1">
          <mxGeometry x="170" y="120" width="50" height="30" as="geometry" />
        </mxCell>
        <mxCell id="HjxqD9lhztfknBiD-iUj-47" value="" style="endArrow=none;html=1;rounded=0;fontSize=7;exitX=0.339;exitY=0.04;exitDx=0;exitDy=0;exitPerimeter=0;entryX=0.5;entryY=1;entryDx=0;entryDy=0;" edge="1" parent="1" source="HjxqD9lhztfknBiD-iUj-1" target="HjxqD9lhztfknBiD-iUj-48">
          <mxGeometry relative="1" as="geometry">
            <mxPoint x="266.3604171010388" y="135.14772964203007" as="sourcePoint" />
            <mxPoint x="261" y="130" as="targetPoint" />
          </mxGeometry>
        </mxCell>
        <mxCell id="HjxqD9lhztfknBiD-iUj-48" value="&lt;font style=&quot;font-size: 7px;&quot;&gt;Address&lt;/font&gt;" style="ellipse;whiteSpace=wrap;html=1;align=center;fontSize=7;strokeWidth=1;" vertex="1" parent="1">
          <mxGeometry x="240" y="110" width="50" height="30" as="geometry" />
        </mxCell>
        <mxCell id="HjxqD9lhztfknBiD-iUj-49" value="" style="endArrow=none;html=1;rounded=0;fontSize=7;exitX=0.339;exitY=0.04;exitDx=0;exitDy=0;exitPerimeter=0;entryX=0.463;entryY=0.97;entryDx=0;entryDy=0;entryPerimeter=0;" edge="1" parent="1" target="HjxqD9lhztfknBiD-iUj-50">
          <mxGeometry relative="1" as="geometry">
            <mxPoint x="300" y="165" as="sourcePoint" />
            <mxPoint x="310" y="140" as="targetPoint" />
          </mxGeometry>
        </mxCell>
        <mxCell id="HjxqD9lhztfknBiD-iUj-50" value="&lt;font style=&quot;font-size: 7px;&quot;&gt;Phone&amp;nbsp;&lt;br style=&quot;font-size: 7px;&quot;&gt;Number&lt;br style=&quot;font-size: 7px;&quot;&gt;&lt;/font&gt;" style="ellipse;whiteSpace=wrap;html=1;align=center;fontSize=7;strokeWidth=1;" vertex="1" parent="1">
          <mxGeometry x="300" y="110" width="50" height="30" as="geometry" />
        </mxCell>
        <mxCell id="HjxqD9lhztfknBiD-iUj-52" value="" style="edgeStyle=orthogonalEdgeStyle;rounded=0;orthogonalLoop=1;jettySize=auto;html=1;fontSize=7;startArrow=none;startFill=0;endArrow=ERoneToMany;endFill=0;" edge="1" parent="1" source="HjxqD9lhztfknBiD-iUj-51" target="HjxqD9lhztfknBiD-iUj-2">
          <mxGeometry relative="1" as="geometry" />
        </mxCell>
        <mxCell id="HjxqD9lhztfknBiD-iUj-53" value="" style="edgeStyle=orthogonalEdgeStyle;rounded=0;orthogonalLoop=1;jettySize=auto;html=1;fontSize=7;startArrow=none;startFill=0;endArrow=ERmandOne;endFill=0;" edge="1" parent="1" source="HjxqD9lhztfknBiD-iUj-51" target="HjxqD9lhztfknBiD-iUj-4">
          <mxGeometry relative="1" as="geometry" />
        </mxCell>
        <mxCell id="HjxqD9lhztfknBiD-iUj-51" value="ASSIGNS&lt;br style=&quot;font-size: 7px;&quot;&gt;ORDER" style="shape=rhombus;perimeter=rhombusPerimeter;whiteSpace=wrap;html=1;align=center;fontSize=7;strokeWidth=1;" vertex="1" parent="1">
          <mxGeometry x="200" y="285" width="100" height="50" as="geometry" />
        </mxCell>
        <mxCell id="HjxqD9lhztfknBiD-iUj-54" value="" style="endArrow=none;html=1;rounded=0;fontSize=7;entryX=0.154;entryY=1.074;entryDx=0;entryDy=0;entryPerimeter=0;exitX=0.5;exitY=0;exitDx=0;exitDy=0;" edge="1" parent="1" source="HjxqD9lhztfknBiD-iUj-55" target="HjxqD9lhztfknBiD-iUj-2">
          <mxGeometry relative="1" as="geometry">
            <mxPoint x="68" y="358" as="sourcePoint" />
            <mxPoint x="84.94000000000005" y="329.89000000000004" as="targetPoint" />
          </mxGeometry>
        </mxCell>
        <mxCell id="HjxqD9lhztfknBiD-iUj-55" value="&lt;font style=&quot;font-size: 7px;&quot;&gt;Date of Issue&lt;/font&gt;" style="ellipse;whiteSpace=wrap;html=1;align=center;fontSize=7;strokeWidth=1;" vertex="1" parent="1">
          <mxGeometry x="30" y="360" width="50" height="30" as="geometry" />
        </mxCell>
        <mxCell id="HjxqD9lhztfknBiD-iUj-56" value="" style="endArrow=none;html=1;rounded=0;fontSize=7;entryX=0.849;entryY=1.002;entryDx=0;entryDy=0;entryPerimeter=0;exitX=0.319;exitY=0.009;exitDx=0;exitDy=0;exitPerimeter=0;" edge="1" parent="1" source="HjxqD9lhztfknBiD-iUj-57" target="HjxqD9lhztfknBiD-iUj-2">
          <mxGeometry relative="1" as="geometry">
            <mxPoint x="170" y="360" as="sourcePoint" />
            <mxPoint x="150.40000000000003" y="335" as="targetPoint" />
          </mxGeometry>
        </mxCell>
        <mxCell id="HjxqD9lhztfknBiD-iUj-57" value="&lt;font style=&quot;font-size: 7px;&quot;&gt;Type of driving license&lt;/font&gt;" style="ellipse;whiteSpace=wrap;html=1;align=center;fontSize=7;strokeWidth=1;" vertex="1" parent="1">
          <mxGeometry x="170" y="360" width="70" height="30" as="geometry" />
        </mxCell>
        <mxCell id="HjxqD9lhztfknBiD-iUj-59" value="" style="endArrow=none;html=1;rounded=0;fontSize=7;entryX=0.437;entryY=1.048;entryDx=0;entryDy=0;entryPerimeter=0;" edge="1" parent="1">
          <mxGeometry relative="1" as="geometry">
            <mxPoint x="-214.74823900270724" y="368.70197424580283" as="sourcePoint" />
            <mxPoint x="-219.9999999999999" y="340" as="targetPoint" />
          </mxGeometry>
        </mxCell>
        <mxCell id="HjxqD9lhztfknBiD-iUj-60" value="" style="endArrow=none;html=1;rounded=0;fontSize=7;entryX=0.453;entryY=1.044;entryDx=0;entryDy=0;entryPerimeter=0;exitX=0.429;exitY=0;exitDx=0;exitDy=0;exitPerimeter=0;" edge="1" parent="1" source="HjxqD9lhztfknBiD-iUj-61" target="HjxqD9lhztfknBiD-iUj-2">
          <mxGeometry relative="1" as="geometry">
            <mxPoint x="112.6000589743557" y="359.9953243589565" as="sourcePoint" />
            <mxPoint x="107.38999999999982" y="331.28999999999996" as="targetPoint" />
          </mxGeometry>
        </mxCell>
        <mxCell id="HjxqD9lhztfknBiD-iUj-61" value="&lt;font style=&quot;font-size: 7px;&quot;&gt;date of issue of taxi&#39;s driver license&lt;/font&gt;" style="ellipse;whiteSpace=wrap;html=1;align=center;fontSize=7;strokeWidth=1;" vertex="1" parent="1">
          <mxGeometry x="90" y="370" width="70" height="30" as="geometry" />
        </mxCell>
      </root>
    </mxGraphModel>
  </diagram>
</mxfile>
